<?xml version="1.0" encoding="UTF-8" standalone="no"?>
<!DOCTYPE svg PUBLIC "-//W3C//DTD SVG 1.1//EN" "http://www.w3.org/Graphics/SVG/1.1/DTD/svg11.dtd">
<svg xmlns="http://www.w3.org/2000/svg">
<metadata>Generated by IcoMoon</metadata>
<defs>
<font id="icomoon" horiz-adv-x="1024">
<font-face units-per-em="1024" ascent="960" descent="-64"/>
<missing-glyph horiz-adv-x="1024"/>
<glyph unicode=" " horiz-adv-x="512" d=""/>
<glyph unicode="" glyph-name="chevron_left" d="M658 622.923l-196-196 196-196-60-60-256 256 256 256z"/>
<glyph unicode="" glyph-name="chevron_right" d="M426 682.923l256-256-256-256-60 60 196 196-196 196z"/>
<glyph unicode="" glyph-name="expand_less" d="M512 596.923l256-256-60-60-196 196-196-196-60 60z"/>
<glyph unicode="" glyph-name="expand_more" d="M708 572.923l60-60-256-256-256 256 60 60 196-196z"/>
<glyph unicode="" glyph-name="menu" d="M128 682.923h768v-86h-768v86zM128 384.923v84h768v-84h-768zM128 170.923v86h768v-86h-768z"/>
<glyph unicode="" glyph-name="more_vert" d="M512 256.923q34 0 60-26t26-60-26-60-60-26-60 26-26 60 26 60 60 26zM512 512.923q34 0 60-26t26-60-26-60-60-26-60 26-26 60 26 60 60 26zM512 596.923q-34 0-60 26t-26 60 26 60 60 26 60-26 26-60-26-60-60-26z"/>
<glyph unicode="" glyph-name="life-jacket" d="M960 490.923c-110.208 0-149.333 103.424-149.333 192v128c0 58.837-47.829 106.667-106.667 106.667h-384c-58.837 0-106.667-47.829-106.667-106.667v-128c0-95.573-46.165-192-149.333-192-11.776 0-21.333-9.557-21.333-21.333v-469.333c0-11.776 9.557-21.333 21.333-21.333h896c11.776 0 21.333 9.557 21.333 21.333v469.333c0 11.776-9.557 21.333-21.333 21.333zM597.333 874.923v-213.333c0-47.061-38.272-85.333-85.333-85.333s-85.333 38.272-85.333 85.333v213.333h170.667zM256 682.923v128c0 35.285 28.715 64 64 64h64v-213.333c0-70.571 57.429-128 128-128s128 57.429 128 128v213.333h64c35.285 0 64-28.715 64-64v-128c0-110.336 52.992-221.611 170.667-233.643v-86.357h-128v64c0 11.776-9.557 21.333-21.333 21.333h-85.333c-11.776 0-21.333-9.557-21.333-21.333v-64h-341.333v64c0 11.776-9.557 21.333-21.333 21.333h-85.333c-11.776 0-21.333-9.557-21.333-21.333v-64h-128v86.443c117.077 12.373 170.667 126.805 170.667 233.557zM810.667 320.256h128v-128h-128v128zM768 405.589v-298.667h-42.667v298.667h42.667zM682.667 192.256h-341.333v128h341.333v-128zM298.667 405.589v-298.667h-42.667v298.667h42.667zM213.333 192.256h-128v128h128v-128zM85.333 21.589v128h128v-64c0-11.776 9.557-21.333 21.333-21.333h85.333c11.776 0 21.333 9.557 21.333 21.333v64h341.333v-64c0-11.776 9.557-21.333 21.333-21.333h85.333c11.776 0 21.333 9.557 21.333 21.333v64h128v-128h-853.333z"/>
<glyph unicode="" glyph-name="scissors-2" d="M1008.085 206.891l-405.76 241.621 405.717 241.152c10.112 6.016 13.44 19.029 7.467 29.141-29.653 50.389-102.613 69.291-153.131 39.552l-484.395-285.099-130.048 76.715c58.197 27.179 98.901 85.888 98.901 154.283 0 94.123-76.544 170.667-170.667 170.667s-170.667-76.544-170.667-170.667 76.544-170.667 170.667-170.667c4.523 0 8.789 0.939 13.269 1.323l146.56-86.4-147.541-86.869c-4.139 0.341-8.064 1.28-12.288 1.28-94.123 0-170.667-76.544-170.667-170.667s76.544-170.667 170.667-170.667 170.667 76.544 170.667 170.667c0 68.608-40.917 127.531-99.499 154.624l130.645 76.843 484.395-285.525c16-9.472 34.944-14.293 54.4-14.293 9.941 0 20.053 1.237 29.995 3.84 29.44 7.595 54.485 25.813 68.736 50.005 5.973 10.112 2.645 23.125-7.424 29.141zM48.171 704.256c0 70.571 57.429 128 128 128s128-57.429 128-128-57.429-128-128-128-128 57.429-128 128zM304.171 192.256c0-70.571-57.429-128-128-128s-128 57.429-128 128 57.429 128 128 128 128-57.429 128-128zM884.053 721.621c24.448 14.336 58.581 9.728 80.597-8.149l-404.011-240.128-48.896 29.184 372.309 219.093zM936.107 169.045c-18.56-4.821-37.547-2.645-52.096 5.931l-464 273.536 49.749 29.312 494.848-294.699c-7.979-6.443-17.749-11.307-28.501-14.080z"/>
<glyph unicode="" glyph-name="bed-double" d="M1023.616 258.133c-0.043 0.555 0.171 1.067 0.085 1.621l-85.035 510.251v104.917c0 47.061-38.272 85.333-85.333 85.333h-682.667c-47.061 0-85.333-38.272-85.333-85.333v-104.875l-85.035-510.293c-0.085-0.555 0.128-1.067 0.085-1.621-0.085-0.683-0.384-1.195-0.384-1.877v-192c0-47.061 38.272-85.333 85.333-85.333h42.667v-21.333c0-11.776 9.557-21.333 21.333-21.333s21.333 9.557 21.333 21.333v21.333h682.667v-21.333c0-11.776 9.557-21.333 21.333-21.333s21.333 9.557 21.333 21.333v21.333h42.667c47.061 0 85.333 38.272 85.333 85.333v192c0 0.683-0.299 1.195-0.384 1.877zM124.715 746.923h54.656l-8.491-61.056c-0.853-6.101 0.981-12.288 5.035-16.939 4.053-4.693 9.899-7.339 16.085-7.339h257.792c11.605 0 21.077 9.301 21.333 20.907l1.237 59.563h89.941l1.237-59.563c0.299-11.605 9.771-20.907 21.376-20.907h257.792c6.187 0 12.032 2.645 16.085 7.339 4.053 4.651 5.888 10.795 5.035 16.939l-8.491 61.056h43.947l21.333-128h-817.237l21.333 128zM216.491 704.256l11.861 85.333h202.283l-1.792-85.333h-212.352zM604.032 789.589h202.283l11.861-85.333h-212.395l-1.749 85.333zM170.667 917.589h682.667c23.509 0 42.667-19.157 42.667-42.667v-85.333h-46.592l-3.371 24.277c-1.451 10.539-10.496 18.389-21.12 18.389h-242.688c-5.717 0-11.221-2.304-15.232-6.4s-6.229-9.643-6.101-15.36l0.555-25.771h-88.192l0.555 25.771c0.128 5.717-2.091 11.264-6.101 15.36s-9.515 6.4-15.275 6.4h-242.645c-10.667 0-19.669-7.851-21.12-18.389l-3.371-24.277h-57.301v85.333c0 23.509 19.157 42.667 42.667 42.667zM96.299 576.256h831.403l49.792-298.667h-930.987l49.792 298.667zM981.333 64.256c0-23.509-19.157-42.667-42.667-42.667h-853.333c-23.509 0-42.667 19.115-42.667 42.667v170.667h938.667v-170.667z"/>
<glyph unicode="" glyph-name="logo-pinterest" d="M517.845 960.256c-265.515 0-424.192-189.909-424.192-373.419 0-114.432 48.085-202.24 128.683-235.093 24.576-10.155 50.304 2.859 56.917 28.331l11.563 45.312c6.144 23.083 0.64 35.157-12.501 50.688-21.931 25.771-32.128 56.533-32.128 96.683 0 120.533 89.771 248.661 256.213 248.661 131.541 0 213.205-74.581 213.205-194.688 0-156.075-69.163-278.357-157.397-278.357-23.125 0-43.861 9.429-56.875 25.856-12.245 15.445-16.256 35.499-11.307 56.448 6.059 25.429 14.123 51.541 21.973 76.928 14.592 47.232 28.416 91.861 28.416 128 0 63.36-39.125 105.941-97.365 105.941-72.917 0-130.048-73.515-130.048-167.253 0-43.648 11.179-77.013 16.939-91.179l-70.955-300.203c-18.56-78.635-9.472-171.349-2.091-221.952 1.963-14.336 13.952-24.704 28.501-24.704 9.045 0 17.408 4.096 24.363 13.056 29.824 38.144 82.944 113.621 104.021 190.080 4.437 15.957 19.243 74.283 29.483 114.731 32.085-27.776 79.659-45.696 127.275-45.696 188.587 0 325.461 171.435 325.461 407.595 0 169.173-141.44 344.235-378.155 344.235zM570.539 251.093c-55.083 0-103.68 29.909-118.827 58.837-4.096 7.851-12.715 12.629-21.376 11.264-8.789-1.067-16.043-7.381-18.176-16 0 0-32.597-129.451-39.509-154.496-11.947-43.349-39.467-96.384-77.824-150.101-7.125 66.091-5.163 126.464 5.675 172.459l72.533 307.157c1.109 4.821 0.512 9.899-1.664 14.379-0.128 0.341-15.787 32.768-15.787 79.701 0 69.888 38.357 124.587 87.381 124.587 49.365 0 54.699-44.245 54.699-63.275 0-29.653-12.885-71.296-26.496-115.456-8.107-26.24-16.469-53.333-22.741-79.659-8.021-33.92-1.109-66.816 19.371-92.757 21.163-26.752 54.101-42.027 90.368-42.027 114.048 0 200.064 137.984 200.064 321.024 0 144.171-100.437 237.355-255.872 237.355-170.411 0-298.88-125.269-298.88-291.328 0-50.176 13.824-90.837 42.24-124.245 3.84-4.565 4.821-6.272 4.949-6.272 0 0 0 0 0 0.043 0-0.213 0-1.579-1.195-6.016l-11.051-45.013c-63.957 26.069-102.144 99.2-102.144 195.584 0.043 137.344 118.4 330.752 381.568 330.752 210.005 0 335.488-153.344 335.488-301.568 0-214.869-116.309-364.928-282.795-364.928z"/>
<glyph unicode="" glyph-name="cheeseburger" d="M341.333 768c0-11.782-9.551-21.333-21.333-21.333s-21.333 9.551-21.333 21.333c0 11.782 9.551 21.333 21.333 21.333s21.333-9.551 21.333-21.333zM426.667 810.667c0-11.782-9.551-21.333-21.333-21.333s-21.333 9.551-21.333 21.333c0 11.782 9.551 21.333 21.333 21.333s21.333-9.551 21.333-21.333zM640 810.667c0-11.782-9.551-21.333-21.333-21.333s-21.333 9.551-21.333 21.333c0 11.782 9.551 21.333 21.333 21.333s21.333-9.551 21.333-21.333zM533.333 768c0-11.782-9.551-21.333-21.333-21.333s-21.333 9.551-21.333 21.333c0 11.782 9.551 21.333 21.333 21.333s21.333-9.551 21.333-21.333zM727.125 768c0-11.782-9.551-21.333-21.333-21.333s-21.333 9.551-21.333 21.333c0 11.782 9.551 21.333 21.333 21.333s21.333-9.551 21.333-21.333zM1024 341.333c0 32.384-14.805 61.099-37.675 80.683 24.064 14.507 37.675 37.845 37.675 68.651 0 49.621-56.832 72.277-86.187 80.768-8.704 222.592-188.587 388.565-425.813 388.565s-417.109-165.973-425.813-388.565c-29.355-8.491-86.187-31.147-86.187-80.768 0-30.805 13.611-54.187 37.675-68.651-22.869-19.584-37.675-48.299-37.675-80.683 0-35.029 17.152-65.877 43.349-85.333-26.197-19.456-43.349-50.304-43.349-85.333 0-51.499 36.693-94.592 85.333-104.491v-23.509c0-58.795 47.829-106.667 106.667-106.667h640c58.837 0 106.667 47.872 106.667 106.667v23.509c48.64 9.899 85.333 52.992 85.333 104.491 0 35.029-17.152 65.877-43.349 85.333 26.197 19.456 43.349 50.304 43.349 85.333zM512 917.333c211.328 0 372.48-145.28 383.403-341.333h-766.805c10.923 196.053 172.075 341.333 383.403 341.333zM42.667 490.667c0 21.461 44.416 37.888 66.432 42.667h805.803c21.973-4.651 66.475-20.992 66.475-42.667 0-10.581 0-42.667-64-42.667-19.712 0-39.552 6.229-49.323 15.488-4.779 4.523-11.435 6.485-17.92 5.589-6.528-0.981-12.203-4.992-15.403-10.752-13.355-24.149-39.552-52.992-87.979-52.992-45.397 0-71.509 15.317-87.125 51.2-3.371 7.765-11.051 12.8-19.541 12.8s-16.171-5.035-19.541-12.8c-16.512-37.76-66.816-51.2-108.459-51.2-41.685 0-91.989 13.44-108.459 51.2-3.371 7.765-11.051 12.8-19.541 12.8s-16.171-5.035-19.541-12.8c-15.659-35.883-41.728-51.2-87.125-51.2-48.512 0-74.624 28.8-87.979 52.992-3.2 5.76-8.875 9.728-15.403 10.752-6.485 0.939-13.141-1.067-17.92-5.589-9.899-9.259-29.739-15.488-49.451-15.488-64 0-64 32.128-64 42.667zM896 42.667c0-35.285-28.715-64-64-64h-640c-35.285 0-64 28.715-64 64v21.333h768v-21.333zM981.333 170.667c0-35.285-28.715-64-64-64h-810.667c-35.285 0-64 28.715-64 64s28.715 64 64 64h400.299l251.52-125.739c3.029-1.536 6.272-2.261 9.557-2.261 5.547 0 11.008 2.133 15.104 6.229l121.771 121.771h12.416c35.285 0 64-28.715 64-64zM602.368 234.667h242.133l-80.725-80.725-161.408 80.725zM917.333 277.333h-810.667c-35.285 0-64 28.715-64 64s28.715 64 64 64c21.12 0 41.429 4.651 57.899 12.885 27.136-36.011 66.432-55.552 112.768-55.552 48.213 0 83.84 15.019 107.904 45.696 31.872-33.109 83.2-45.696 126.763-45.696 43.52 0 94.848 12.544 126.72 45.696 24.064-30.677 59.691-45.696 107.947-45.696 46.293 0 85.589 19.541 112.768 55.552 16.469-8.235 36.736-12.885 57.899-12.885 35.285 0 64-28.715 64-64s-28.715-64-64-64z"/>
<glyph unicode="" glyph-name="hamburger" d="M981.333 436.395v54.528c0 164.693-134.016 298.667-298.667 298.667h-341.333c-164.651 0-298.667-133.973-298.667-298.667v-54.528c-25.387-14.805-42.667-42.027-42.667-73.472v-42.667c0-31.445 17.28-58.667 42.667-73.472v-33.195c0-58.795 47.829-106.667 106.667-106.667h725.333c58.837 0 106.667 47.872 106.667 106.667v33.195c25.387 14.805 42.667 41.984 42.667 73.472v42.667c0 31.445-17.28 58.667-42.667 73.472zM85.333 490.923c0 141.184 114.816 256 256 256h341.333c141.184 0 256-114.816 256-256v-42.667h-853.333v42.667zM938.667 213.589c0-35.285-28.715-64-64-64h-725.333c-35.285 0-64 28.715-64 64v21.333h853.333v-21.333zM981.333 320.256c0-23.509-19.115-42.667-42.667-42.667h-853.333c-23.552 0-42.667 19.157-42.667 42.667v42.667c0 23.509 19.115 42.667 42.667 42.667h853.333c23.552 0 42.667-19.157 42.667-42.667v-42.667zM341.333 640.256c0-11.782-9.551-21.333-21.333-21.333s-21.333 9.551-21.333 21.333c0 11.782 9.551 21.333 21.333 21.333s21.333-9.551 21.333-21.333zM426.667 682.923c0-11.782-9.551-21.333-21.333-21.333s-21.333 9.551-21.333 21.333c0 11.782 9.551 21.333 21.333 21.333s21.333-9.551 21.333-21.333zM640 682.923c0-11.782-9.551-21.333-21.333-21.333s-21.333 9.551-21.333 21.333c0 11.782 9.551 21.333 21.333 21.333s21.333-9.551 21.333-21.333zM533.333 640.256c0-11.782-9.551-21.333-21.333-21.333s-21.333 9.551-21.333 21.333c0 11.782 9.551 21.333 21.333 21.333s21.333-9.551 21.333-21.333zM727.125 640.256c0-11.782-9.551-21.333-21.333-21.333s-21.333 9.551-21.333 21.333c0 11.782 9.551 21.333 21.333 21.333s21.333-9.551 21.333-21.333z"/>
<glyph unicode="" glyph-name="cocktail-2" d="M874.667 874.923c-82.347 0-149.333-66.987-149.333-149.333 0-7.211 0.811-14.293 1.792-21.333h-397.44l-142.976 163.371c-4.053 4.651-9.856 7.296-16.043 7.296h-170.667v-42.667h160.981l112-128h-80.981c-8.619 0-16.427-5.205-19.712-13.184s-1.451-17.109 4.608-23.253l335.104-335.061v-353.835h-149.333c-11.776 0-21.333-9.557-21.333-21.333s9.557-21.333 21.333-21.333h341.333c11.776 0 21.333 9.557 21.333 21.333s-9.557 21.333-21.333 21.333h-149.333v353.835l257.365 257.408c19.584-9.045 40.875-13.909 62.635-13.909 82.347 0 149.333 66.987 149.333 149.333s-66.987 149.333-149.333 149.333zM823.168 661.589l-289.835-289.835-289.835 289.835h579.669zM874.667 618.923c-10.069 0-20.053 1.493-29.568 4.224l44.672 44.672c6.101 6.101 7.936 15.275 4.608 23.253s-11.093 13.184-19.712 13.184h-104.32c-1.451 6.955-2.347 14.037-2.347 21.333 0 58.795 47.829 106.667 106.667 106.667s106.667-47.872 106.667-106.667-47.829-106.667-106.667-106.667z"/>
<glyph unicode="" glyph-name="cocktail-3" d="M874.667 917.589c-82.347 0-149.333-66.987-149.333-149.333 0-7.211 0.853-14.293 1.835-21.333h-433.152l-18.432 73.728c-14.293 57.045-65.365 96.939-124.203 96.939h-151.381v-42.667h151.381c39.253 0 73.301-26.581 82.773-64.64l15.829-63.36h-63.317c-6.741 0-13.141-3.2-17.152-8.661s-5.205-12.459-3.243-18.944c44.843-145.835 179.712-300.117 345.728-312.533v-427.861h-149.333c-11.776 0-21.333-9.557-21.333-21.333s9.557-21.333 21.333-21.333h341.333c11.776 0 21.333 9.557 21.333 21.333s-9.557 21.333-21.333 21.333h-149.333v427.861c128.597 9.643 238.208 104.149 302.037 214.187 6.016-0.725 11.904-2.048 17.963-2.048 82.347 0 149.333 66.987 149.333 149.333s-66.987 149.333-149.333 149.333zM533.333 448.256c-144.896 0-266.709 127.275-316.672 256h633.344c-49.92-128.725-171.733-256-316.672-256zM878.293 661.973c8.789 19.029 16.213 38.272 22.101 57.344 2.005 6.485 0.811 13.483-3.2 18.944-4.053 5.461-10.453 8.661-17.195 8.661h-109.653c-1.451 6.997-2.347 14.080-2.347 21.333 0 58.795 47.829 106.667 106.667 106.667s106.667-47.872 106.667-106.667c0-57.6-45.909-104.32-103.040-106.283z"/>
<glyph unicode="" glyph-name="wine-glass" d="M831.829 621.739l-42.667 320c-1.408 10.581-10.453 18.517-21.163 18.517h-469.333c-10.709 0-19.755-7.936-21.163-18.517l-42.837-322.816c0-157.483 122.624-286.549 277.333-297.6v-342.4h-106.667c-11.776 0-21.333-9.557-21.333-21.333s9.557-21.333 21.333-21.333h256c11.776 0 21.333 9.557 21.333 21.333s-9.557 21.333-21.333 21.333h-106.667v342.4c154.709 11.051 277.333 140.245 277.163 300.416zM317.355 917.589h432l28.587-213.333h-489.045l28.459 213.333zM277.163 616.107l6.059 45.483h500.437l5.675-42.667c0-141.184-114.816-256-256-256s-256 114.816-256.171 253.184z"/>
<glyph unicode="" glyph-name="home-1" d="M874.667 384.256c-11.776 0-21.333-9.557-21.333-21.333v-384h-213.333v277.333c0 11.776-9.557 21.333-21.333 21.333h-213.333c-11.776 0-21.333-9.557-21.333-21.333v-277.333h-213.333v405.333c0 11.776-9.557 21.333-21.333 21.333s-21.333-9.557-21.333-21.333v-426.667c0-11.819 9.557-21.333 21.333-21.333h256c11.776 0 21.333 9.557 21.333 21.333v277.333h170.667v-277.333c0-11.776 9.557-21.333 21.333-21.333h256c11.776 0 21.333 9.557 21.333 21.333v405.333c0 11.776-9.557 21.333-21.333 21.333zM1017.771 420.651l-490.667 490.667c-8.32 8.32-21.845 8.32-30.165 0l-490.667-490.667c-8.32-8.32-8.32-21.845 0-30.165s21.845-8.32 30.165 0l475.563 475.563 475.563-475.563c4.181-4.181 9.643-6.229 15.104-6.229s10.923 2.091 15.104 6.229c8.32 8.32 8.32 21.845 0 30.165zM682.667 832.256h128v-128c0-11.776 9.557-21.333 21.333-21.333s21.333 9.515 21.333 21.333v149.333c0 11.776-9.557 21.333-21.333 21.333h-149.333c-11.776 0-21.333-9.557-21.333-21.333s9.557-21.333 21.333-21.333z"/>
<glyph unicode="" glyph-name="location-pin-direction-3" d="M234.667 960.256c-114.773 0-208.171-93.355-208.171-208.171 0-107.776 172.16-317.141 191.787-340.608 3.115-3.712 7.467-5.76 12.16-6.741-9.685-2.005-17.109-10.197-17.109-20.48v-42.667c0-11.776 9.557-21.333 21.333-21.333s21.333 9.557 21.333 21.333v42.667c0 10.283-7.424 18.475-17.109 20.48 4.651 0.981 9.045 2.987 12.16 6.741 19.627 23.509 191.787 232.832 191.787 340.608 0 114.816-93.397 208.171-208.171 208.171zM234.667 458.923c-57.899 72.661-165.504 222.293-165.504 293.163 0 91.264 74.24 165.504 165.504 165.504s165.504-74.24 165.504-165.504c0-70.827-107.605-220.459-165.504-293.163zM234.667 843.477c-50.389 0-91.392-41.003-91.392-91.392s41.003-91.392 91.392-91.392c50.432 0 91.435 41.003 91.435 91.392s-41.003 91.392-91.435 91.392zM234.667 703.36c-26.837 0-48.725 21.845-48.725 48.725s21.845 48.725 48.725 48.725c26.88 0 48.768-21.845 48.768-48.725 0-26.837-21.888-48.725-48.768-48.725zM789.333 490.923c-114.773 0-208.171-93.355-208.171-208.171 0-107.776 172.16-317.141 191.787-340.608 4.053-4.864 10.027-7.68 16.384-7.68s12.331 2.816 16.384 7.68c19.627 23.509 191.787 232.832 191.787 340.608 0 114.816-93.397 208.171-208.171 208.171zM789.333-10.411c-57.899 72.661-165.504 222.293-165.504 293.163 0 91.264 74.24 165.504 165.504 165.504s165.504-74.24 165.504-165.504c0-70.827-107.605-220.459-165.504-293.163zM789.333 374.144c-50.389 0-91.392-41.003-91.392-91.392s41.003-91.392 91.392-91.392c50.432 0 91.435 41.003 91.435 91.392s-41.003 91.392-91.435 91.392zM789.333 234.027c-26.837 0-48.725 21.845-48.725 48.725s21.845 48.725 48.725 48.725c26.88 0 48.768-21.845 48.768-48.725 0-26.837-21.888-48.725-48.768-48.725zM277.333-21.077h-21.333v21.333c0 11.776-9.557 21.333-21.333 21.333s-21.333-9.557-21.333-21.333v-42.667c0-11.776 9.557-21.333 21.333-21.333h42.667c11.776 0 21.333 9.557 21.333 21.333s-9.557 21.333-21.333 21.333zM661.333-21.077h-42.667c-11.776 0-21.333-9.557-21.333-21.333s9.557-21.333 21.333-21.333h42.667c11.776 0 21.333 9.557 21.333 21.333s-9.557 21.333-21.333 21.333zM533.333-21.077h-42.667c-11.776 0-21.333-9.557-21.333-21.333s9.557-21.333 21.333-21.333h42.667c11.776 0 21.333 9.557 21.333 21.333s-9.557 21.333-21.333 21.333zM405.333-21.077h-42.667c-11.776 0-21.333-9.557-21.333-21.333s9.557-21.333 21.333-21.333h42.667c11.776 0 21.333 9.557 21.333 21.333s-9.557 21.333-21.333 21.333zM234.667 192.256c11.776 0 21.333 9.557 21.333 21.333v42.667c0 11.776-9.557 21.333-21.333 21.333s-21.333-9.557-21.333-21.333v-42.667c0-11.776 9.557-21.333 21.333-21.333zM213.333 85.589c0-11.776 9.557-21.333 21.333-21.333s21.333 9.557 21.333 21.333v42.667c0 11.776-9.557 21.333-21.333 21.333s-21.333-9.557-21.333-21.333v-42.667z"/>
<glyph unicode="" glyph-name="map-target-1" d="M490.667 640.256c-94.123 0-170.667-76.544-170.667-170.667s76.544-170.667 170.667-170.667 170.667 76.544 170.667 170.667-76.544 170.667-170.667 170.667zM490.667 341.589c-70.571 0-128 57.429-128 128s57.429 128 128 128 128-57.429 128-128-57.429-128-128-128zM960 490.923h-107.733c-10.709 182.955-157.312 329.557-340.267 340.267v107.733c0 11.776-9.557 21.333-21.333 21.333s-21.333-9.557-21.333-21.333v-107.733c-182.955-10.709-329.557-157.312-340.267-340.267h-107.733c-11.776 0-21.333-9.557-21.333-21.333s9.557-21.333 21.333-21.333h107.733c10.709-182.955 157.312-329.557 340.267-340.267v-107.733c0-11.776 9.557-21.333 21.333-21.333s21.333 9.557 21.333 21.333v107.733c182.955 10.709 329.557 157.312 340.267 340.267h107.733c11.776 0 21.333 9.557 21.333 21.333s-9.557 21.333-21.333 21.333zM490.667 149.589c-176.469 0-320 143.531-320 320s143.531 320 320 320 320-143.531 320-320-143.531-320-320-320z"/>
<glyph unicode="" glyph-name="map-target-2" d="M960 490.24h-107.691c-10.453 183.253-157.141 330.197-340.309 340.949v107.733c0 11.776-9.557 21.333-21.333 21.333s-21.333-9.557-21.333-21.333v-107.733c-183.168-10.709-329.856-157.653-340.309-340.907h-107.691c-11.776 0-21.333-9.557-21.333-21.333s9.557-21.333 21.333-21.333h107.776c11.051-182.613 157.483-328.875 340.224-339.584v-107.776c0-11.776 9.557-21.333 21.333-21.333s21.333 9.557 21.333 21.333v107.733c182.699 10.709 329.173 156.971 340.224 339.584h107.776c11.776 0 21.333 9.557 21.333 21.333s-9.557 21.333-21.333 21.333zM490.667 149.589c-176.469 0-320 143.531-320 320s143.531 320 320 320 320-143.531 320-320-143.531-320-320-320z"/>
<glyph unicode="" glyph-name="map-target-none" d="M647.723 190.72c-47.616-26.923-101.931-41.131-157.056-41.131-176.469 0-320 143.531-320 320 0 54.272 13.781 107.819 39.893 154.837 5.717 10.283 2.005 23.296-8.277 29.013-10.283 5.76-23.296 2.005-29.013-8.277-26.283-47.317-40.875-100.523-43.947-154.88h-107.093c-11.776 0-21.333-9.557-21.333-21.333s9.557-21.333 21.333-21.333h106.923c11.051-182.613 157.483-328.875 340.224-339.584v-107.776c0-11.776 9.557-21.333 21.333-21.333s21.333 9.557 21.333 21.333v108.032c55.083 3.243 108.885 18.261 156.715 45.312 10.24 5.803 13.867 18.816 8.064 29.056s-18.859 13.824-29.099 8.064zM960 490.923c-0.043 0-0.085 0-0.085 0l-107.605-0.555c-10.496 183.168-157.184 330.069-340.309 340.821v107.733c0 11.776-9.557 21.333-21.333 21.333s-21.333-9.557-21.333-21.333v-108.032c-55.339-3.285-109.44-18.432-157.525-45.739-10.24-5.803-13.867-18.816-8.021-29.056 5.803-10.24 18.859-13.867 29.099-8.021 47.829 27.179 102.443 41.515 157.781 41.515 176.469 0 320-143.531 320-320 0-48.939-10.752-95.957-32-139.605-5.163-10.624-0.725-23.381 9.856-28.501 3.029-1.451 6.187-2.133 9.301-2.133 7.936 0 15.531 4.437 19.2 11.989 20.864 42.965 32.256 88.832 35.072 136.363l107.989 0.555c11.776 0.043 21.291 9.685 21.248 21.419-0.043 11.776-9.6 21.248-21.333 21.248zM100.437 889.344c-8.32 8.32-21.845 8.32-30.165 0s-8.32-21.845 0-30.165l852.011-852.011c4.181-4.181 9.643-6.229 15.104-6.229s10.923 2.091 15.104 6.229c8.32 8.32 8.32 21.845 0 30.165l-852.053 852.011z"/>
<glyph unicode="" glyph-name="location-pin-1" d="M682.667 661.589c0 94.123-76.544 170.667-170.667 170.667s-170.667-76.544-170.667-170.667 76.544-170.667 170.667-170.667 170.667 76.544 170.667 170.667zM384 661.589c0 70.571 57.429 128 128 128s128-57.429 128-128-57.429-128-128-128-128 57.429-128 128zM512 20.565c7.168 0 13.867 3.584 17.792 9.6 12.117 18.304 296.021 450.176 296.021 616.235 0 173.056-140.757 313.856-313.813 313.856s-313.813-140.8-313.813-313.856c0-166.059 283.947-597.973 296.021-616.235 3.925-5.973 10.624-9.6 17.792-9.6zM512 917.589c149.504 0 271.147-121.643 271.147-271.189 0-130.816-208.213-466.645-271.147-565.205-62.976 98.56-271.147 434.389-271.147 565.205 0 149.547 121.643 271.189 271.147 271.189zM727.125 141.013c-11.307 1.152-22.059-7.723-23.040-19.456s7.723-22.059 19.456-23.040c194.475-16.384 253.013-47.915 258.176-53.547-12.544-23.68-180.224-66.048-469.717-66.048s-457.173 42.368-469.717 61.952c5.12 9.685 63.275 41.088 256.384 57.515 11.733 0.981 20.437 11.307 19.456 23.083-0.981 11.733-11.264 20.864-23.083 19.456-195.755-16.683-295.040-49.664-295.040-98.005 0-103.68 459.605-106.667 512-106.667s512 2.987 512 106.667c0 48.512-99.883 81.536-296.875 98.091z"/>
<glyph unicode="" glyph-name="location-pin-2" d="M512 960.256c-188.203 0-341.333-153.131-341.333-341.333 0-181.12 310.315-653.099 323.541-673.067 3.925-6.016 10.624-9.6 17.792-9.6s13.867 3.584 17.792 9.6c13.227 19.968 323.541 491.947 323.541 673.067 0 188.203-153.131 341.333-341.333 341.333zM512-3.157c-66.816 104.448-298.667 477.184-298.667 622.080 0 164.693 133.973 298.667 298.667 298.667s298.667-133.973 298.667-298.667c0-144.853-231.851-517.632-298.667-622.080zM512 768.256c-82.347 0-149.333-66.987-149.333-149.333s66.987-149.333 149.333-149.333 149.333 66.987 149.333 149.333-66.987 149.333-149.333 149.333zM512 512.256c-58.795 0-106.667 47.872-106.667 106.667s47.872 106.667 106.667 106.667 106.667-47.872 106.667-106.667-47.872-106.667-106.667-106.667z"/>
<glyph unicode="" glyph-name="network-web" d="M1002.453 618.923h-75.861c-67.883 166.4-232.363 277.333-414.592 277.333-6.528 0-13.013-0.128-19.413-0.384-180.181-7.296-334.635-115.541-398.165-276.949h-73.301c-11.776 0-21.333-9.557-21.333-21.333v-298.667c0-11.776 9.557-21.333 21.333-21.333h79.488c70.613-166.357 233.344-277.333 409.984-277.333 180.949 0 345.515 110.933 414.635 277.333h77.227c11.776 0 21.333 9.557 21.333 21.333v298.667c0 11.776-9.557 21.333-21.333 21.333zM698.923 618.923c-3.883 14.379-8.235 28.587-13.227 42.667h171.563c8.448-13.696 16.384-27.819 23.211-42.667h-181.547zM654.72 618.923h-285.44c4.181 14.379 8.747 28.629 14.123 42.667h257.109c5.419-14.037 10.027-28.288 14.208-42.667zM826.837 704.256h-157.909c-22.016 49.92-51.115 97.707-87.296 143.104 96.939-16.853 184.021-68.309 245.205-143.104zM520.832 853.248c42.197-46.933 76.032-96.725 101.205-148.992h-220.075c25.173 52.352 59.051 102.229 101.333 149.163 2.901 0.043 5.803 0.171 8.704 0.171 2.944 0 5.888-0.299 8.832-0.341zM442.325 847.36c-36.139-45.397-65.28-93.184-87.253-143.104h-161.749c60.885 75.392 148.779 126.677 249.003 143.104zM163.712 661.589h174.549c-4.949-14.080-9.344-28.288-13.184-42.667h-183.509c6.656 14.763 13.909 29.013 22.144 42.667zM335.829 277.589c4.437-14.251 9.216-28.459 14.592-42.667h-179.541c-8.619 13.696-16.768 27.819-23.808 42.667h188.757zM380.843 277.589h262.272c-4.693-14.251-9.131-28.459-14.848-42.667h-232.619c-5.717 14.208-10.112 28.416-14.805 42.667zM201.6 192.256h166.741c21.632-48.64 48.853-96.853 81.408-144.469-96.853 15.616-185.259 67.925-248.149 144.469zM504.704 43.179c-36.139 49.067-65.707 98.901-89.557 149.077h193.579c-23.808-50.091-53.419-99.925-89.515-148.992-2.859-0.085-5.717-0.341-8.619-0.341-1.963 0-3.925 0.213-5.888 0.256zM574.421 48.085c32.469 47.531 59.563 95.659 81.195 144.171h169.216c-62.763-76.16-151.893-128.341-250.411-144.171zM855.467 234.923h-181.931c5.376 14.208 10.197 28.416 14.635 42.667h190.848c-6.955-14.848-14.976-28.971-23.552-42.667zM981.12 320.256h-938.667v256h938.667v-256zM236.629 341.632c0.555-0.043 1.067-0.043 1.621-0.043 9.216 0 17.493 5.973 20.352 14.891l6.827 21.504 6.869-21.547c2.987-9.387 12.416-16 21.973-14.805 9.813 0.768 17.877 8.149 19.456 17.963l27.179 170.667c1.792 11.605-6.101 22.528-17.792 24.405-11.435 1.664-22.571-6.059-24.405-17.749l-13.056-82.048c-5.845 17.451-34.645 17.451-40.448 0.085l-13.056 81.963c-1.877 11.691-13.056 19.413-24.405 17.749-11.648-1.877-19.584-12.8-17.749-24.405l27.179-170.667c1.579-9.813 9.6-17.195 19.456-17.963zM493.568 341.632c0.555-0.043 1.067-0.043 1.621-0.043 9.216 0 17.451 5.973 20.352 14.848l6.869 21.504 6.784-21.461c2.987-9.429 11.349-15.957 21.931-14.848 9.856 0.768 17.92 8.149 19.499 17.92l27.349 170.667c1.835 11.605-6.101 22.571-17.707 24.448-11.52 1.664-22.571-6.059-24.448-17.707l-13.141-82.005c-2.901 8.661-11.051 14.549-20.224 14.549-9.216 0-17.408-5.931-20.309-14.72l-13.056 82.133c-1.835 11.648-12.971 19.413-24.405 17.749-11.648-1.877-19.584-12.8-17.749-24.405l27.179-170.667c1.579-9.813 9.643-17.195 19.456-17.963zM750.677 341.632c9.813-1.109 18.944 5.419 21.973 14.805l6.869 21.547 6.827-21.504c2.816-8.917 11.136-14.891 20.352-14.891 0.555 0 1.067 0 1.621 0.043 9.813 0.768 17.877 8.149 19.456 17.963l27.179 170.667c1.835 11.605-6.101 22.528-17.749 24.405-11.563 1.664-22.571-6.101-24.405-17.749l-13.056-81.963c-2.901 8.661-11.051 14.549-20.224 14.549-9.216 0-17.323-5.931-20.267-14.635l-13.056 82.048c-1.835 11.648-12.971 19.413-24.405 17.749-11.648-1.877-19.584-12.8-17.749-24.405l27.179-170.667c1.579-9.813 9.6-17.195 19.456-17.963z"/>
<glyph unicode="" glyph-name="programming-website" d="M258.432 416.64c9.728-0.768 18.944 5.376 21.973 14.848l14.933 46.805 14.933-46.805c2.816-8.917 11.136-14.891 20.352-14.891 0.555 0 1.067 0 1.621 0.043 9.813 0.768 17.877 8.149 19.456 17.963l35.2 221.312c1.749 11.605-6.144 22.528-17.835 24.363-11.52 1.792-22.571-6.101-24.405-17.749l-21.077-132.565-7.979 25.003c-5.675 17.749-34.987 17.749-40.661 0l-7.979-25.003-21.077 132.608c-1.92 11.691-12.629 19.499-24.491 17.707-11.605-1.877-19.541-12.8-17.707-24.448l35.243-221.312c1.621-9.728 9.643-17.152 19.499-17.877zM475.179 416.64c9.728-0.768 18.944 5.376 21.973 14.848l14.933 46.805 14.933-46.805c2.816-8.917 11.136-14.891 20.352-14.891 0.555 0 1.067 0 1.621 0.043 9.813 0.768 17.877 8.149 19.456 17.963l35.157 221.312c1.835 11.605-6.101 22.528-17.749 24.405-11.605 1.749-22.656-6.144-24.491-17.792l-21.035-132.523-7.979 24.96c-5.675 17.749-34.987 17.749-40.661 0l-7.979-25.003-21.12 132.608c-1.92 11.648-12.672 19.499-24.448 17.707-11.605-1.877-19.541-12.8-17.707-24.448l35.243-221.312c1.621-9.728 9.643-17.152 19.499-17.877zM691.883 416.64c9.771-0.768 18.944 5.376 21.973 14.848l14.933 46.805 14.933-46.805c2.816-8.917 11.136-14.891 20.352-14.891 0.555 0 1.067 0 1.621 0.043 9.813 0.768 17.877 8.149 19.456 17.963l35.2 221.312c1.835 11.605-6.101 22.528-17.749 24.405-11.563 1.792-22.571-6.144-24.405-17.749l-21.077-132.565-7.979 25.003c-5.675 17.749-34.987 17.749-40.661 0l-7.979-25.003-21.12 132.608c-1.92 11.648-12.672 19.499-24.448 17.707-11.605-1.877-19.541-12.8-17.707-24.448l35.243-221.312c1.536-9.771 9.557-17.195 19.413-17.92zM938.667 874.923h-853.333c-47.061 0-85.333-40.021-85.333-89.131v-632.405c0-49.109 38.272-89.131 85.333-89.131h384v-42.667h-256c-11.776 0-21.333-9.557-21.333-21.333s9.557-21.333 21.333-21.333h597.333c11.776 0 21.333 9.557 21.333 21.333s-9.557 21.333-21.333 21.333h-298.667v42.667h426.667c47.061 0 85.333 40.021 85.333 89.131v632.405c0 49.109-38.272 89.131-85.333 89.131zM85.333 832.256h853.333c23.552 0 42.667-20.821 42.667-46.464v-508.203h-938.667v508.203c0 25.643 19.115 46.464 42.667 46.464zM938.667 106.923h-853.333c-23.552 0-42.667 20.821-42.667 46.464v81.536h938.667v-81.536c0-25.643-19.115-46.464-42.667-46.464zM554.667 170.923c0-23.564-19.103-42.667-42.667-42.667s-42.667 19.103-42.667 42.667c0 23.564 19.103 42.667 42.667 42.667s42.667-19.103 42.667-42.667z"/>
<glyph unicode="" glyph-name="dollar-sign-circle" d="M490.667 960.256c-270.549 0-490.667-220.117-490.667-490.667s220.117-490.667 490.667-490.667 490.667 220.117 490.667 490.667-220.117 490.667-490.667 490.667zM490.667 21.589c-247.040 0-448 200.96-448 448s200.96 448 448 448 448-200.96 448-448-200.96-448-448-448zM576 576.256c0-11.776 9.557-21.333 21.333-21.333s21.333 9.557 21.333 21.333c0 63.275-46.251 115.627-106.667 125.824v44.843c0 11.776-9.557 21.333-21.333 21.333s-21.333-9.557-21.333-21.333v-44.843c-60.416-10.197-106.667-62.549-106.667-125.824s46.251-115.627 106.667-125.824v-169.771c-36.693 9.557-64 42.667-64 82.304 0 11.776-9.557 21.333-21.333 21.333s-21.333-9.6-21.333-21.376c0-63.275 46.251-115.627 106.667-125.824v-44.843c0-11.776 9.557-21.333 21.333-21.333s21.333 9.557 21.333 21.333v44.843c60.416 10.197 106.667 62.549 106.667 125.824s-46.251 115.627-106.667 125.824v169.813c36.693-9.557 64-42.667 64-82.304zM405.333 576.256c0 39.637 27.307 72.747 64 82.304v-164.565c-36.693 9.515-64 42.624-64 82.261zM576 362.923c0-39.637-27.307-72.747-64-82.304v164.565c36.693-9.515 64-42.624 64-82.261z"/>
<glyph unicode="" glyph-name="credit-card-visa" d="M917.333 832.256h-810.667c-58.837 0-106.667-47.872-106.667-106.667v-554.667c0-58.795 47.829-106.667 106.667-106.667h810.667c58.837 0 106.667 47.872 106.667 106.667v554.667c0 58.795-47.829 106.667-106.667 106.667zM981.333 170.923c0-35.285-28.715-64-64-64h-810.667c-35.285 0-64 28.715-64 64v554.667c0 35.285 28.715 64 64 64h810.667c35.285 0 64-28.715 64-64v-554.667zM405.888 557.483c-10.539 5.12-23.381 0.683-28.459-10.027l-75.477-157.483-14.763 145.749c-1.067 10.923-10.24 19.2-21.205 19.2h-54.656c-11.776 0-21.333-9.557-21.333-21.333s9.557-21.333 21.333-21.333h35.371l15.403-152.149c1.067-10.923 10.283-19.2 21.205-19.2 0.171 0 0.341 0 0.512 0l29.355 0.683c8.021 0.171 15.232 4.864 18.731 12.117l84.011 175.317c5.077 10.667 0.597 23.381-10.027 28.459zM478.165 555.819c-11.136 2.389-22.741-5.163-25.088-16.725l-34.645-173.312c-2.347-11.563 5.163-22.784 16.768-25.088 1.365-0.299 2.773-0.427 4.224-0.427 9.941 0 18.816 6.997 20.864 17.152l34.645 173.312c2.304 11.563-5.163 22.784-16.768 25.088zM638.037 557.568c-27.477 7.211-80.043 9.472-102.315-27.648-21.12-35.2-7.936-67.627 39.125-96.512 19.157-11.733 29.824-23.637 27.861-31.019-1.067-4.181-4.821-14.464-15.787-20.309-12.459-6.571-31.232-5.845-54.528 2.304-11.136 3.84-23.253-2.005-27.179-13.099-3.925-11.136 1.963-23.296 13.099-27.179 17.451-6.101 33.621-9.173 48.341-9.173 14.933 0 28.416 3.157 40.277 9.472 18.176 9.643 31.659 26.795 37.035 47.061 5.163 19.499 1.195 48.896-46.805 78.293-34.901 21.376-29.568 30.293-24.875 38.187 9.728 16.128 45.909 10.624 55.040 8.32 11.264-2.987 22.997 3.925 25.941 15.317 2.987 11.392-3.84 22.997-15.232 25.984zM828.672 412.928c0 1.877-0.64 3.541-1.067 5.291l-9.685 117.12c-0.896 10.88-9.856 19.371-20.779 19.584l-31.317 0.683c-8.917 0.384-16.128-4.565-19.712-12.117l-82.688-172.672c-5.077-10.624-0.597-23.339 10.027-28.459 2.944-1.408 6.144-2.091 9.216-2.091 7.979 0 15.573 4.437 19.243 12.117l18.773 39.211h66.304l2.432-29.099c0.939-11.776 12.032-20.096 22.997-19.541 11.733 0.981 20.48 11.307 19.499 23.040l-3.712 44.715c0.085 0.768 0.469 1.408 0.469 2.219zM741.12 434.261l36.139 75.477 6.229-75.477h-42.368z"/>
<glyph unicode="" glyph-name="credit-card" d="M917.333 746.923h-810.667c-58.837 0-106.667-47.872-106.667-106.667v-426.667c0-58.795 47.829-106.667 106.667-106.667h810.667c58.837 0 106.667 47.872 106.667 106.667v426.667c0 58.795-47.829 106.667-106.667 106.667zM106.667 704.256h810.667c35.285 0 64-28.715 64-64v-64h-938.667v64c0 35.285 28.715 64 64 64zM917.333 149.589h-810.667c-35.285 0-64 28.715-64 64v320h938.667v-320c0-35.285-28.715-64-64-64zM874.667 448.256h-128c-11.776 0-21.333-9.557-21.333-21.333s9.557-21.333 21.333-21.333h128c11.776 0 21.333 9.557 21.333 21.333s-9.557 21.333-21.333 21.333zM490.667 448.256h-341.333c-11.776 0-21.333-9.557-21.333-21.333s9.557-21.333 21.333-21.333h341.333c11.776 0 21.333 9.557 21.333 21.333s-9.557 21.333-21.333 21.333zM277.333 362.923h-128c-11.776 0-21.333-9.557-21.333-21.333s9.557-21.333 21.333-21.333h128c11.776 0 21.333 9.557 21.333 21.333s-9.557 21.333-21.333 21.333z"/>
<glyph unicode="" glyph-name="coins-1" d="M682.667 960.256c-188.203 0-341.333-153.131-341.333-341.333-188.203 0-341.333-153.131-341.333-341.333s153.131-341.333 341.333-341.333 341.333 153.131 341.333 341.333c188.203 0 341.333 153.131 341.333 341.333s-153.131 341.333-341.333 341.333zM640 277.589c0-164.693-134.016-298.667-298.667-298.667s-298.667 133.973-298.667 298.667 134.016 298.667 298.667 298.667c0.981 0 2.005-0.128 2.987-0.128 19.371-153.984 141.525-276.139 295.552-295.552 0-1.024 0.128-2.005 0.128-2.987zM682.667 320.256c-164.651 0-298.667 133.973-298.667 298.667s134.016 298.667 298.667 298.667 298.667-133.973 298.667-298.667-134.016-298.667-298.667-298.667zM661.333 725.589c23.552 0 42.667-19.157 42.667-42.667 0-11.776 9.557-21.333 21.333-21.333s21.333 9.557 21.333 21.333c0 39.637-27.307 72.789-64 82.304v24.363c0 11.776-9.557 21.333-21.333 21.333s-21.333-9.557-21.333-21.333v-24.363c-36.693-9.515-64-42.667-64-82.304 0-47.061 38.272-85.333 85.333-85.333 23.552 0 42.667-19.157 42.667-42.667s-19.115-42.667-42.667-42.667-42.667 19.157-42.667 42.667c0 11.776-9.557 21.333-21.333 21.333s-21.333-9.557-21.333-21.333c0-39.637 27.307-72.789 64-82.304v-24.363c0-11.776 9.557-21.333 21.333-21.333s21.333 9.557 21.333 21.333v24.363c36.693 9.515 64 42.667 64 82.304 0 47.061-38.272 85.333-85.333 85.333-23.552 0-42.667 19.157-42.667 42.667s19.115 42.667 42.667 42.667zM320 384.256c23.552 0 42.667-19.157 42.667-42.667 0-11.776 9.557-21.333 21.333-21.333s21.333 9.557 21.333 21.333c0 39.637-27.307 72.789-64 82.304v24.363c0 11.776-9.557 21.333-21.333 21.333s-21.333-9.557-21.333-21.333v-24.363c-36.693-9.515-64-42.667-64-82.304 0-47.061 38.272-85.333 85.333-85.333 23.552 0 42.667-19.157 42.667-42.667s-19.115-42.667-42.667-42.667-42.667 19.157-42.667 42.667c0 11.776-9.557 21.333-21.333 21.333s-21.333-9.557-21.333-21.333c0-39.637 27.307-72.789 64-82.304v-24.363c0-11.776 9.557-21.333 21.333-21.333s21.333 9.557 21.333 21.333v24.363c36.693 9.515 64 42.667 64 82.304 0 47.061-38.272 85.333-85.333 85.333-23.552 0-42.667 19.157-42.667 42.667s19.115 42.667 42.667 42.667z"/>
<glyph unicode="" glyph-name="circle-cash" d="M60.075 640.896c2.944-1.451 6.101-2.091 9.216-2.091 7.936 0 15.573 4.437 19.243 12.117 44.245 92.288 118.827 168.832 210.005 215.467 10.496 5.376 14.677 18.219 9.301 28.715-5.419 10.496-18.347 14.507-28.715 9.259-99.456-50.859-180.821-134.315-229.077-235.008-5.077-10.624-0.597-23.381 10.027-28.459zM967.040 563.84c2.432-9.685 11.136-16.085 20.651-16.085 1.707 0 3.456 0.213 5.248 0.64 11.435 2.901 18.347 14.507 15.403 25.899-27.307 107.989-90.709 205.781-178.517 275.371-9.216 7.339-22.613 5.803-29.952-3.456-7.339-9.216-5.803-22.656 3.456-29.952 80.555-63.829 138.667-153.429 163.712-252.416zM42.667 448.256c0 31.701 3.157 63.36 9.429 94.080 2.304 11.563-5.12 22.827-16.683 25.131-11.435 2.261-22.784-5.077-25.173-16.64-6.784-33.493-10.24-68.011-10.24-102.571 0-78.208 17.152-153.259 50.987-223.061 3.712-7.595 11.307-12.032 19.2-12.032 3.115 0 6.272 0.683 9.301 2.133 10.624 5.12 15.061 17.877 9.899 28.501-31.019 63.957-46.72 132.736-46.72 204.459zM406.187 905.6c99.584 22.997 206.165 12.629 299.435-29.653 2.816-1.28 5.845-1.877 8.789-1.877 8.064 0 15.872 4.651 19.413 12.501 4.864 10.709 0.128 23.381-10.624 28.245-101.717 46.123-217.856 57.472-326.571 32.384-11.477-2.645-18.645-14.123-16-25.6 2.603-11.477 13.952-18.645 25.557-16zM408.064-9.515c-99.584 22.485-190.677 78.293-256.512 157.141-7.595 9.088-21.035 10.24-30.037 2.688-9.045-7.552-10.24-20.992-2.688-30.037 71.808-86.016 171.179-146.859 279.851-171.435 1.579-0.341 3.157-0.512 4.693-0.512 9.771 0 18.603 6.741 20.779 16.64 2.645 11.477-4.565 22.869-16.085 25.515zM804.821 81.451c-81.067-64.853-178.859-100.267-282.795-102.4-11.733-0.256-21.12-9.984-20.864-21.76 0.256-11.648 9.771-20.907 21.333-20.907 0.128 0 0.299 0 0.469 0 113.365 2.389 220.032 41.003 308.523 111.744 9.216 7.339 10.667 20.779 3.328 29.995-7.296 9.216-20.693 10.667-29.995 3.328zM1002.667 470.613c-11.776 0-21.333-10.581-21.333-22.357 0-104.021-33.323-202.539-96.384-284.928-7.125-9.344-5.376-22.741 4.011-29.909 3.883-2.944 8.405-4.395 12.971-4.395 6.4 0 12.757 2.859 16.939 8.363 68.736 89.899 105.131 197.376 105.131 310.869v2.005c0 11.819-9.557 20.352-21.333 20.352zM512 170.923c0-11.776 9.557-21.333 21.333-21.333s21.333 9.557 21.333 21.333v50.176c58.965 10.197 104.021 61.355 104.021 123.136 0 69.12-56.192 125.355-125.355 125.355-45.568 0-82.688 37.077-82.688 82.688 0 45.568 37.077 82.645 82.688 82.645s82.688-37.077 82.688-82.645c0-11.776 9.557-21.333 21.333-21.333s21.333 9.557 21.333 21.333c0 61.781-45.056 112.939-104.021 123.136v50.176c0 11.776-9.557 21.333-21.333 21.333s-21.333-9.557-21.333-21.333v-50.219c-58.965-10.197-104.021-61.355-104.021-123.136 0-69.12 56.192-125.355 125.355-125.355 45.568 0 82.688-37.077 82.688-82.688 0-45.568-37.077-82.645-82.688-82.645s-82.688 37.077-82.688 82.645c0 11.776-9.557 21.333-21.333 21.333s-21.333-9.557-21.333-21.333c0-61.781 45.056-112.939 104.021-123.136v-50.133z"/>
<glyph unicode="" glyph-name="shopping-cart-4" d="M894.933 164.181l128 384c2.176 6.485 1.067 13.653-2.944 19.243-4.011 5.547-10.453 8.832-17.323 8.832h-754.859l-56.405 239.573c-2.219 9.6-10.837 16.427-20.736 16.427h-149.333c-11.776 0-21.333-9.557-21.333-21.333s9.557-21.333 21.333-21.333h132.437l161.707-687.104c-34.347-11.051-59.477-42.923-59.477-80.896 0-47.061 38.272-85.333 85.333-85.333s85.333 38.272 85.333 85.333c0 15.616-4.48 30.080-11.861 42.667h322.432c-7.424-12.587-11.904-27.051-11.904-42.667 0-47.061 38.272-85.333 85.333-85.333s85.333 38.272 85.333 85.333-38.272 85.333-85.333 85.333h-452.437l-10.027 42.667h526.464c9.173 0 17.323 5.888 20.267 14.592zM384 21.589c0-23.509-19.115-42.667-42.667-42.667s-42.667 19.157-42.667 42.667 19.115 42.667 42.667 42.667 42.667-19.157 42.667-42.667zM853.333 21.589c0-23.509-19.115-42.667-42.667-42.667s-42.667 19.157-42.667 42.667 19.115 42.667 42.667 42.667 42.667-19.157 42.667-42.667zM338.176 192.256l-80.341 341.333h715.264l-113.792-341.333h-521.131z"/>
<glyph unicode="" glyph-name="landscape-mode" d="M148.011 64.256h-105.344v105.344c0 11.776-9.557 21.333-21.333 21.333s-21.333-9.557-21.333-21.333v-126.677c0-11.776 9.557-21.333 21.333-21.333h126.677c11.776 0 21.333 9.557 21.333 21.333s-9.557 21.333-21.333 21.333zM21.333 705.579c11.776 0 21.333 9.557 21.333 21.333v105.344h105.344c11.776 0 21.333 9.557 21.333 21.333s-9.557 21.333-21.333 21.333h-126.677c-11.776 0-21.333-9.557-21.333-21.333v-126.677c0-11.776 9.557-21.333 21.333-21.333zM1002.667 874.923h-126.677c-11.776 0-21.333-9.557-21.333-21.333s9.557-21.333 21.333-21.333h105.344v-105.344c0-11.776 9.557-21.333 21.333-21.333s21.333 9.557 21.333 21.333v126.677c0 11.776-9.557 21.333-21.333 21.333zM1002.667 190.933c-11.776 0-21.333-9.557-21.333-21.333v-105.344h-105.344c-11.776 0-21.333-9.557-21.333-21.333s9.557-21.333 21.333-21.333h126.677c11.776 0 21.333 9.557 21.333 21.333v126.677c0 11.776-9.557 21.333-21.333 21.333zM341.333 574.933c47.061 0 85.333 38.272 85.333 85.333s-38.272 85.333-85.333 85.333-85.333-38.272-85.333-85.333 38.272-85.333 85.333-85.333zM341.333 702.933c23.509 0 42.667-19.157 42.667-42.667s-19.157-42.667-42.667-42.667-42.667 19.157-42.667 42.667 19.157 42.667 42.667 42.667zM896 212.267c0 11.776-9.557 21.333-21.333 21.333h-49.195l-122.795 327.509c-2.816 7.467-9.6 12.757-17.536 13.696-7.893 1.109-15.744-2.688-20.181-9.344l-154.795-232.235-88.363 106.069c-4.437 5.333-11.093 8.021-18.048 7.595-6.912-0.555-13.099-4.395-16.64-10.283l-121.771-202.965h-116.011c-11.776 0-21.333-9.557-21.333-21.333s9.557-21.333 21.333-21.333h725.333c11.776-0.043 21.333 9.472 21.333 21.291zM408.149 388.864l87.424-104.917c4.309-5.163 10.197-7.979 17.536-7.637 6.699 0.384 12.885 3.883 16.597 9.472l147.541 221.355 102.571-273.536h-464.811l93.141 155.264z"/>
<glyph unicode="" glyph-name="camera-2" d="M914.944 704.256h-69.803l-38.101 75.819c-22.357 33.664-51.413 52.181-81.707 52.181h-213.333c-30.293 0-59.349-18.517-81.067-51.2l-57.6-76.8h-117.333v21.333c0 34.091-31.019 64-66.389 64h-40.277c-34.048 0-62.805-29.312-62.805-63.403l-0.64-23.552c-69.803-7.765-85.888-53.717-85.888-93.227v-443.221c0-64.768 39.765-101.931 109.056-101.931h805.931c69.248 0 109.013 37.163 109.013 101.931v443.221c0 43.264-18.901 94.848-109.056 94.848zM149.333 746.923h40.277c11.776 0 23.723-10.752 23.723-21.333v-21.333h-84.693l0.597 21.333c-0.043 10.752 9.941 21.333 20.096 21.333zM981.333 166.187c0-41.003-20.48-59.264-66.389-59.264h-805.888c-45.909 0-66.389 18.261-66.389 59.264v443.221c0 31.317 10.88 52.181 64 52.181h277.333c6.699 0 13.056 3.157 17.067 8.533l64.683 86.272c8.235 12.416 25.259 33.195 46.251 33.195h213.333c20.992 0 38.016-20.779 44.928-30.891l42.667-85.333c3.627-7.211 11.008-11.776 19.072-11.776h82.944c61.269 0 66.389-25.771 66.389-52.181v-443.221zM618.667 661.589c-141.184 0-256-114.816-256-256s114.816-256 256-256 256 114.816 256 256-114.816 256-256 256zM618.667 192.256c-117.632 0-213.333 95.701-213.333 213.333s95.701 213.333 213.333 213.333 213.333-95.701 213.333-213.333-95.701-213.333-213.333-213.333zM618.667 554.923c-82.347 0-149.333-66.987-149.333-149.333s66.987-149.333 149.333-149.333 149.333 66.987 149.333 149.333-66.987 149.333-149.333 149.333zM618.667 298.923c-58.795 0-106.667 47.872-106.667 106.667s47.872 106.667 106.667 106.667 106.667-47.872 106.667-106.667-47.872-106.667-106.667-106.667zM170.667 618.923c-47.061 0-85.333-38.272-85.333-85.333s38.272-85.333 85.333-85.333 85.333 38.272 85.333 85.333-38.272 85.333-85.333 85.333zM170.667 490.923c-23.509 0-42.667 19.157-42.667 42.667s19.157 42.667 42.667 42.667 42.667-19.157 42.667-42.667-19.157-42.667-42.667-42.667z"/>
<glyph unicode="" glyph-name="bookmark-3" d="M789.333 960.256h-554.667c-11.776 0-21.333-9.557-21.333-21.333v-981.333c0-8.619 5.205-16.427 13.184-19.712s17.109-1.451 23.253 4.608l127.957 127.957c0.043 0.043 0.043 0.043 0.085 0.085l134.187 134.229 134.229-134.229c0.043-0.043 0.043-0.043 0.085-0.085l127.957-127.957c4.053-4.053 9.515-6.229 15.061-6.229 2.731 0 5.547 0.555 8.149 1.621 7.979 3.285 13.184 11.093 13.184 19.712v981.333c0 11.776-9.557 21.333-21.333 21.333zM341.333 94.421l-85.333-85.333v908.501h85.333v-823.168zM640 137.088l-112.896 112.896c-4.181 4.181-9.643 6.272-15.104 6.272s-10.923-2.091-15.104-6.229l-112.896-112.939v780.501h256v-780.501zM768 9.088l-85.333 85.333v823.168h85.333v-908.501z"/>
<glyph unicode="" glyph-name="bookmark-5" d="M682.667 960.256h-341.333c-94.123 0-170.667-76.544-170.667-170.667v-832c0-8.619 5.205-16.427 13.184-19.712 7.936-3.285 17.109-1.451 23.253 4.608l198.229 198.272 198.229-198.229c4.096-4.096 9.557-6.272 15.104-6.272 2.731 0 5.547 0.555 8.149 1.621 7.979 3.285 13.184 11.093 13.184 19.712v704h192c11.776 0 21.333 9.557 21.333 21.333v106.667c0 94.123-76.544 170.667-170.667 170.667zM810.667 704.256h-170.667v64c0 35.285 28.715 64 64 64 11.776 0 21.333 9.557 21.333 21.333s-9.557 21.333-21.333 21.333c-58.837 0-106.667-47.829-106.667-106.667v-759.168l-176.896 176.896c-4.181 4.181-9.643 6.272-15.104 6.272s-10.923-2.091-15.104-6.229l-176.896-176.939v780.501c0 70.571 57.429 128 128 128h341.333c70.571 0 128-57.429 128-128v-85.333z"/>
<glyph unicode="" glyph-name="download-harddrive-1" d="M475.563 411.861c2.005-1.963 4.395-3.541 6.955-4.608 2.603-1.109 5.376-1.664 8.149-1.664s5.547 0.555 8.149 1.664c2.603 1.067 4.949 2.645 6.955 4.608l170.624 170.667c8.32 8.32 8.32 21.845 0 30.165s-21.845 8.32-30.165 0l-134.229-134.272v460.501c0 11.776-9.557 21.333-21.333 21.333s-21.333-9.557-21.333-21.333v-460.501l-134.229 134.272c-8.32 8.32-21.845 8.32-30.165 0s-8.32-21.845 0-30.165l170.624-170.667zM853.333 106.923h-170.667c-11.776 0-21.333-9.557-21.333-21.333s9.557-21.333 21.333-21.333h170.667c11.776 0 21.333 9.557 21.333 21.333s-9.557 21.333-21.333 21.333zM1023.659 215.253c-0.085 0.939-0.341 1.749-0.555 2.645-0.64 2.944-1.749 5.589-3.456 7.936-0.341 0.427-0.299 0.981-0.64 1.408l-213.333 256c-4.011 4.864-10.027 7.68-16.341 7.68h-64c-11.776 0-21.333-9.557-21.333-21.333s9.557-21.333 21.333-21.333h54.016l177.792-213.333h-890.283l177.792 213.333h32.683c11.776 0 21.333 9.557 21.333 21.333s-9.557 21.333-21.333 21.333h-42.667c-6.315 0-12.331-2.816-16.384-7.68l-213.333-256c-0.341-0.427-0.299-0.939-0.64-1.408-1.707-2.347-2.816-4.992-3.456-7.936-0.213-0.896-0.469-1.749-0.555-2.645 0-0.597-0.299-1.067-0.299-1.664v-170.667c0-58.795 47.829-106.667 106.667-106.667h810.667c58.837 0 106.667 47.872 106.667 106.667v170.667c0 0.597-0.299 1.067-0.341 1.664zM917.333-21.077h-810.667c-35.285 0-64 28.715-64 64v149.333h938.667v-149.333c0-35.285-28.715-64-64-64z"/>
<glyph unicode="" glyph-name="upload-harddrive-1" d="M377.771 753.152l134.229 134.272v-460.501c0-11.776 9.557-21.333 21.333-21.333s21.333 9.557 21.333 21.333v460.501l134.229-134.229c4.181-4.181 9.643-6.272 15.104-6.272s10.923 2.091 15.104 6.229c8.32 8.32 8.32 21.845 0 30.165l-170.624 170.667c-2.005 1.963-4.395 3.541-6.955 4.608-5.248 2.176-11.093 2.176-16.341 0-2.603-1.067-4.949-2.645-6.955-4.608l-170.624-170.667c-8.32-8.32-8.32-21.845 0-30.165s21.803-8.32 30.165 0zM853.333 106.923h-170.667c-11.776 0-21.333-9.557-21.333-21.333s9.557-21.333 21.333-21.333h170.667c11.776 0 21.333 9.557 21.333 21.333s-9.557 21.333-21.333 21.333zM1023.659 215.253c-0.085 0.939-0.341 1.749-0.555 2.645-0.64 2.944-1.749 5.589-3.456 7.936-0.341 0.427-0.299 0.981-0.64 1.408l-213.333 256c-4.011 4.864-10.027 7.68-16.341 7.68h-42.667c-11.776 0-21.333-9.557-21.333-21.333s9.557-21.333 21.333-21.333h32.683l177.792-213.333h-890.283l177.792 213.333h54.016c11.776 0 21.333 9.557 21.333 21.333s-9.557 21.333-21.333 21.333h-64c-6.315 0-12.331-2.816-16.384-7.68l-213.333-256c-0.341-0.427-0.299-0.939-0.64-1.408-1.707-2.347-2.816-4.992-3.456-7.936-0.213-0.896-0.469-1.749-0.555-2.645 0-0.597-0.299-1.067-0.299-1.664v-170.667c0-58.795 47.829-106.667 106.667-106.667h810.667c58.837 0 106.667 47.872 106.667 106.667v170.667c0 0.597-0.299 1.067-0.341 1.664zM917.333-21.077h-810.667c-35.285 0-64 28.715-64 64v149.333h938.667v-149.333c0-35.285-28.715-64-64-64z"/>
<glyph unicode="" glyph-name="share" d="M832 320.256c-65.835 0-125.781-33.109-161.024-87.637l-298.88 149.419c7.893 21.291 11.904 43.477 11.904 66.219 0 22.784-4.011 44.971-11.861 66.219l298.837 149.419c35.243-54.528 95.189-87.637 161.024-87.637 105.856 0 192 86.144 192 192s-86.144 192-192 192-192-86.144-192-192c0-22.699 4.053-44.885 11.904-66.176l-299.179-149.632c-35.2 54.528-94.891 87.808-160.725 87.808-105.856 0-192-86.144-192-192s86.144-192 192-192c65.835 0 125.525 33.28 160.725 87.808l299.349-149.675c-20.395-55.083-14.72-116.096 16.768-167.040 35.157-57.045 96.171-91.093 163.157-91.093 105.856 0 192 86.144 192 192s-86.144 192-192 192zM832 917.589c82.347 0 149.333-66.987 149.333-149.333s-66.987-149.333-149.333-149.333c-56.747 0-107.904 31.659-133.461 82.645 0 0-0.043 0-0.043 0.043-10.496 21.12-15.829 43.563-15.829 66.645 0 82.347 66.987 149.333 149.333 149.333zM192 298.923c-82.347 0-149.333 66.987-149.333 149.333s66.987 149.333 149.333 149.333c56.789 0 107.904-31.659 133.419-82.603 0 0 0 0 0-0.043 10.581-21.035 15.915-43.477 15.915-66.688 0-23.125-5.376-45.568-15.915-66.688-25.515-50.987-76.629-82.645-133.419-82.645zM832-21.077c-52.096 0-99.499 26.496-126.933 70.827-27.435 44.416-29.867 98.688-6.528 145.195 25.557 50.987 76.715 82.645 133.461 82.645 82.347 0 149.333-66.987 149.333-149.333s-66.987-149.333-149.333-149.333z"/>
<glyph unicode="" glyph-name="lock-close-3" d="M512 384.256c-58.837 0-106.667-47.872-106.667-106.667s47.829-106.667 106.667-106.667 106.667 47.872 106.667 106.667-47.829 106.667-106.667 106.667zM512 213.589c-35.285 0-64 28.715-64 64s28.715 64 64 64 64-28.715 64-64-28.715-64-64-64zM768 564.48v139.776c0 141.184-114.816 256-256 256s-256-114.816-256-256v-139.776c-74.325-26.496-128-96.896-128-180.224v-256c0-105.856 86.144-192 192-192h384c105.856 0 192 86.144 192 192v256c0 83.328-53.675 153.728-128 180.224zM298.667 576.256v128c0 117.632 95.701 213.333 213.333 213.333s213.333-95.701 213.333-213.333v-128h-426.667zM853.333 128.256c0-82.347-66.987-149.333-149.333-149.333h-384c-82.347 0-149.333 66.987-149.333 149.333v256c0 82.347 66.987 149.333 149.333 149.333h384c82.347 0 149.333-66.987 149.333-149.333v-256z"/>
<glyph unicode="" glyph-name="lock-open-3" d="M512 384.256c-58.837 0-106.667-47.872-106.667-106.667s47.829-106.667 106.667-106.667 106.667 47.872 106.667 106.667-47.829 106.667-106.667 106.667zM512 213.589c-35.285 0-64 28.715-64 64s28.715 64 64 64 64-28.715 64-64-28.715-64-64-64zM768 564.48v139.776c0 141.184-114.816 256-256 256s-256-114.816-256-256h42.667c0 117.632 95.701 213.333 213.333 213.333s213.333-95.701 213.333-213.333v-130.176c-7.083 0.811-14.037 2.176-21.333 2.176h-384c-105.856 0-192-86.144-192-192v-256c0-105.856 86.144-192 192-192h384c105.856 0 192 86.144 192 192v256c0 83.328-53.675 153.728-128 180.224zM853.333 128.256c0-82.347-66.987-149.333-149.333-149.333h-384c-82.347 0-149.333 66.987-149.333 149.333v256c0 82.347 66.987 149.333 149.333 149.333h384c82.347 0 149.333-66.987 149.333-149.333v-256z"/>
<glyph unicode="" glyph-name="flag-3" d="M927.445 403.456l-295.979 236.8 299.221 239.317c7.083 5.675 9.771 15.189 6.784 23.723s-11.093 14.293-20.139 14.293h-768c-11.776 0-21.333-9.557-21.333-21.333v-512c0-11.776 9.557-21.333 21.333-21.333h768c0.341 0 0.683 0 0.853 0 11.776 0 21.333 9.557 21.333 21.333 0 8.448-4.949 15.787-12.075 19.2zM170.667 405.589v469.333h685.824l-272.555-217.984c-5.035-4.053-8.021-10.197-8.021-16.683s2.944-12.587 8.021-16.683l272.555-217.984h-685.824zM64 960.256c-11.776 0-21.333-9.557-21.333-21.333v-981.333c0-11.776 9.557-21.333 21.333-21.333s21.333 9.557 21.333 21.333v981.333c0 11.776-9.557 21.333-21.333 21.333z"/>
<glyph unicode="" glyph-name="flag-square-3" d="M917.333 917.589h-725.333c-11.776 0-21.333-9.557-21.333-21.333v-512c0-11.776 9.557-21.333 21.333-21.333h725.333c11.776 0 21.333 9.557 21.333 21.333v512c0 11.776-9.557 21.333-21.333 21.333zM896 405.589h-682.667v469.333h682.667v-469.333zM106.667 960.256c-11.776 0-21.333-9.557-21.333-21.333v-981.333c0-11.776 9.557-21.333 21.333-21.333s21.333 9.557 21.333 21.333v981.333c0 11.776-9.557 21.333-21.333 21.333z"/>
<glyph unicode="" glyph-name="rank-army-star-2" d="M1022.677 604.971c-3.115 8.405-11.093 13.952-20.011 13.952h-347.861l-122.837 327.509c-6.229 16.64-33.664 16.64-39.936 0l-122.837-327.509h-347.861c-8.917 0-16.896-5.547-20.011-13.952-3.115-8.363-0.683-17.792 6.144-23.595l287.744-246.656-123.477-370.389c-2.901-8.832 0.171-18.517 7.68-23.979 7.509-5.504 17.707-5.461 25.216 0l307.371 225.451 307.371-225.408c3.755-2.773 8.192-4.139 12.629-4.139s8.832 1.365 12.587 4.096c7.509 5.461 10.581 15.147 7.68 23.979l-123.477 370.389 287.744 246.656c6.784 5.803 9.259 15.232 6.144 23.595zM690.133 357.76c-6.571-5.632-9.131-14.72-6.357-22.955l106.837-320.427-265.941 195.029c-3.797 2.816-8.235 4.181-12.672 4.181s-8.875-1.365-12.629-4.139l-265.941-195.029 106.837 320.427c2.731 8.235 0.213 17.323-6.357 22.955l-254.891 218.453h304.981c8.875 0 16.853 5.504 19.968 13.824l108.032 288.085 108.032-288.085c3.115-8.32 11.093-13.824 19.968-13.824h304.981l-254.848-218.496z"/>
<glyph unicode="" glyph-name="thumbs-down-2" d="M1002.667 917.589h-213.333c-11.776 0-21.333-9.557-21.333-21.333v-48.171c-52.992 9.685-90.155 23.040-122.539 35.243-44.203 16.683-86.016 32.384-154.795 32.384h-277.333c-47.061 0-85.333-38.272-85.333-85.333 0-17.579 5.333-33.877 14.464-47.445-33.237-11.691-57.131-43.392-57.131-80.555 0-17.579 5.333-33.877 14.464-47.445-33.237-11.691-57.131-43.392-57.131-80.555 0-17.579 5.333-33.877 14.464-47.445-33.237-11.691-57.131-43.392-57.131-80.555 0-47.061 38.272-85.333 85.333-85.333h311.424c-17.963-55.040-51.115-171.477-33.28-235.008 27.179-96.939 83.712-104.448 100.437-104.448 39.595 0 69.419 32.512 69.419 75.648 0 153.515 142.464 314.923 234.667 338.176v-51.2c0-11.776 9.557-21.333 21.333-21.333h213.333c11.776 0 21.333 9.557 21.333 21.333v512c0 11.819-9.557 21.376-21.333 21.376zM490.667 97.237c0-19.456-11.008-32.981-26.795-32.981-17.877 0-44.117 19.2-59.349 73.301-15.957 56.875 25.003 190.72 42.155 237.483 2.389 6.528 1.408 13.824-2.56 19.541-4.011 5.717-10.539 9.131-17.493 9.131h-341.291c-23.552 0-42.667 19.157-42.667 42.667s19.115 42.667 42.667 42.667h42.667c11.776 0 21.333 9.557 21.333 21.333s-9.557 21.333-21.333 21.333c-23.552 0-42.667 19.157-42.667 42.667s19.115 42.667 42.667 42.667h42.667c11.776 0 21.333 9.557 21.333 21.333s-9.557 21.333-21.333 21.333c-23.552 0-42.667 19.157-42.667 42.667s19.115 42.667 42.667 42.667h42.667c11.776 0 21.333 9.557 21.333 21.333s-9.557 21.333-21.333 21.333c-23.552 0-42.667 19.157-42.667 42.667s19.115 42.667 42.667 42.667h277.333c61.013 0 95.744-13.099 139.733-29.653 35.925-13.525 76.203-28.715 137.6-39.083v-325.035c-119.211-21.205-277.333-210.731-277.333-382.037zM981.333 405.589h-170.667v469.333h170.667v-469.333zM896 810.923c0-11.782-9.551-21.333-21.333-21.333s-21.333 9.551-21.333 21.333c0 11.782 9.551 21.333 21.333 21.333s21.333-9.551 21.333-21.333z"/>
<glyph unicode="" glyph-name="thumbs-up-2" d="M1024 533.589c0 47.061-38.272 85.333-85.333 85.333h-310.101c18.133 49.408 49.109 148.523 31.957 209.749-26.709 95.061-82.347 102.443-98.731 102.443-39.893 0-71.125-34.048-71.125-77.525 0-148.48-142.805-314.027-234.667-338.048v39.381c0 11.776-9.557 21.333-21.333 21.333h-213.333c-11.776 0-21.333-9.557-21.333-21.333v-512c0-11.776 9.557-21.333 21.333-21.333h213.333c11.776 0 21.333 9.557 21.333 21.333v60.459c43.179-6.741 75.605-13.355 104.235-19.285 55.595-11.52 95.744-19.84 173.099-19.84h277.333c56.619 0 85.333 21.547 85.333 64 0 17.579-5.333 33.877-14.464 47.445 33.237 11.691 57.131 43.392 57.131 80.555 0 17.579-5.333 33.877-14.464 47.445 33.237 11.691 57.131 43.392 57.131 80.555 0 18.219-5.76 35.115-15.488 48.981 35.797 17.237 58.155 65.92 58.155 100.352zM213.333 64.256h-170.667v469.333h170.667v-469.333zM938.667 469.589h-42.667c-11.776 0-21.333-9.557-21.333-21.333s9.557-21.333 21.333-21.333c23.552 0 42.667-19.157 42.667-42.667s-19.115-42.667-42.667-42.667h-42.667c-11.776 0-21.333-9.557-21.333-21.333s9.557-21.333 21.333-21.333c23.552 0 42.667-19.157 42.667-42.667s-19.115-42.667-42.667-42.667h-42.667c-11.776 0-21.333-9.557-21.333-21.333s9.557-21.333 21.333-21.333c23.552 0 42.667-19.157 42.667-42.667 0-9.984 0-21.333-42.667-21.333h-277.333c-73.003 0-111.317 7.979-164.437 18.944-30.677 6.4-65.024 13.483-112.896 20.821v324.992c117.163 21.973 277.333 214.315 277.333 381.909 0 42.496 58.027 63.787 86.144-36.437 15.787-56.277-24.747-171.52-41.771-211.157-2.773-6.571-2.133-14.165 1.835-20.139 3.925-6.016 10.624-9.6 17.792-9.6h341.333c23.552 0 42.667-19.157 42.667-42.667 0-26.453-22.101-64-42.667-64zM170.667 128.256c0-11.782-9.551-21.333-21.333-21.333s-21.333 9.551-21.333 21.333c0 11.782 9.551 21.333 21.333 21.333s21.333-9.551 21.333-21.333z"/>
<glyph unicode="" glyph-name="thumbs-down-1" d="M960 880.469c-195.84 0-262.827 26.923-316.672 48.512-40.021 16.085-77.824 31.275-152.661 31.275h-277.333c-47.061 0-85.333-38.272-85.333-85.333 0-17.579 5.333-33.877 14.464-47.445-33.237-11.691-57.131-43.392-57.131-80.555 0-17.579 5.333-33.877 14.464-47.445-33.237-11.691-57.131-43.392-57.131-80.555 0-17.579 5.333-33.877 14.464-47.445-33.237-11.691-57.131-43.392-57.131-80.555 0-47.061 38.272-85.333 85.333-85.333h313.899c-12.245-49.877-36.565-157.355-36.565-223.957 0-37.461 10.112-68.736 29.355-90.411 17.067-19.285 41.216-30.336 66.219-30.336 42.837 0 75.136 30.165 75.136 70.144 0 186.965 157.397 317.269 298.667 317.269h128c11.776 0 21.333 9.557 21.333 21.333v389.504c-0.043 11.776-9.6 21.333-21.376 21.333zM938.667 490.923h-106.667c-164.821 0-341.333-144.64-341.333-359.936 0-18.048-16.341-27.477-32.469-27.477-7.552 0-21.973 2.091-34.261 16-12.203 13.739-18.603 35.243-18.603 62.123 0 81.536 41.557 238.208 41.941 239.787 1.707 6.4 0.341 13.269-3.712 18.517s-10.283 8.32-16.896 8.32h-341.333c-23.552 0-42.667 19.157-42.667 42.667s19.115 42.667 42.667 42.667h42.667c11.776 0 21.333 9.557 21.333 21.333s-9.557 21.333-21.333 21.333c-23.552 0-42.667 19.157-42.667 42.667s19.115 42.667 42.667 42.667h42.667c11.776 0 21.333 9.557 21.333 21.333s-9.557 21.333-21.333 21.333c-23.552 0-42.667 19.157-42.667 42.667s19.115 42.667 42.667 42.667h42.667c11.776 0 21.333 9.557 21.333 21.333s-9.557 21.333-21.333 21.333c-23.552 0-42.667 19.157-42.667 42.667s19.115 42.667 42.667 42.667h277.333c66.603 0 97.536-12.459 136.789-28.203 55.168-22.144 123.435-49.536 311.211-51.499v-346.965z"/>
<glyph unicode="" glyph-name="thumbs-up-1" d="M981.333 490.923c0 47.061-38.272 85.333-85.333 85.333h-313.941c12.203 50.133 36.608 158.635 36.608 225.323 0 83.541-49.877 121.557-96.213 121.557-42.453 0-74.453-29.909-74.453-69.547 0-188.587-157.397-320-298.667-320h-128c-11.776 0-21.333-9.557-21.333-21.333v-384c0-11.776 9.557-21.333 21.333-21.333 195.541 0 262.443-28.715 316.203-51.797 40.149-17.237 78.037-33.536 153.131-33.536h277.333c47.061 0 85.333 38.272 85.333 85.333 0 17.579-5.333 33.877-14.464 47.445 33.237 11.691 57.131 43.392 57.131 80.555 0 17.579-5.333 33.877-14.464 47.445 33.237 11.691 57.131 43.392 57.131 80.555 0 17.579-5.333 33.877-14.464 47.445 33.237 11.691 57.131 43.392 57.131 80.555zM896 448.256h-42.667c-11.776 0-21.333-9.557-21.333-21.333s9.557-21.333 21.333-21.333c23.552 0 42.667-19.157 42.667-42.667s-19.115-42.667-42.667-42.667h-42.667c-11.776 0-21.333-9.557-21.333-21.333s9.557-21.333 21.333-21.333c23.552 0 42.667-19.157 42.667-42.667s-19.115-42.667-42.667-42.667h-42.667c-11.776 0-21.333-9.557-21.333-21.333s9.557-21.333 21.333-21.333c23.552 0 42.667-19.157 42.667-42.667s-19.115-42.667-42.667-42.667h-277.333c-66.304 0-97.195 13.269-136.277 30.080-55.296 23.723-123.691 53.077-311.723 55.125v341.461h106.667c161.451 0 341.333 148.949 341.333 362.667 0 18.475 16.512 26.88 31.787 26.88 24.704 0 53.547-20.651 53.547-78.891 0-81.579-41.557-239.616-41.941-241.195-1.707-6.4-0.341-13.227 3.712-18.475 4.011-5.248 10.283-8.32 16.896-8.32h341.333c23.552 0 42.667-19.157 42.667-42.667s-19.115-42.667-42.667-42.667z"/>
<glyph unicode="" glyph-name="view-list" d="M1002.667 917.589h-640c-11.776 0-21.333-9.557-21.333-21.333v-213.333c0-11.776 9.557-21.333 21.333-21.333h640c11.776 0 21.333 9.557 21.333 21.333v213.333c0 11.776-9.557 21.333-21.333 21.333zM981.333 704.256h-597.333v170.667h597.333v-170.667zM1002.667 576.256h-640c-11.776 0-21.333-9.557-21.333-21.333v-213.333c0-11.776 9.557-21.333 21.333-21.333h640c11.776 0 21.333 9.557 21.333 21.333v213.333c0 11.776-9.557 21.333-21.333 21.333zM981.333 362.923h-597.333v170.667h597.333v-170.667zM1002.667 234.923h-640c-11.776 0-21.333-9.557-21.333-21.333v-213.333c0-11.776 9.557-21.333 21.333-21.333h640c11.776 0 21.333 9.557 21.333 21.333v213.333c0 11.776-9.557 21.333-21.333 21.333zM981.333 21.589h-597.333v170.667h597.333v-170.667zM234.667 917.589h-213.333c-11.776 0-21.333-9.557-21.333-21.333v-213.333c0-11.776 9.557-21.333 21.333-21.333h213.333c11.776 0 21.333 9.557 21.333 21.333v213.333c0 11.776-9.557 21.333-21.333 21.333zM213.333 704.256h-170.667v170.667h170.667v-170.667zM234.667 576.256h-213.333c-11.776 0-21.333-9.557-21.333-21.333v-213.333c0-11.776 9.557-21.333 21.333-21.333h213.333c11.776 0 21.333 9.557 21.333 21.333v213.333c0 11.776-9.557 21.333-21.333 21.333zM213.333 362.923h-170.667v170.667h170.667v-170.667zM234.667 234.923h-213.333c-11.776 0-21.333-9.557-21.333-21.333v-213.333c0-11.776 9.557-21.333 21.333-21.333h213.333c11.776 0 21.333 9.557 21.333 21.333v213.333c0 11.776-9.557 21.333-21.333 21.333zM213.333 21.589h-170.667v170.667h170.667v-170.667z"/>
<glyph unicode="" glyph-name="view-module-1" d="M624 576h-192c-8.832 0-16 7.168-16 16v192c0 8.832 7.168 16 16 16h192c8.832 0 16-7.168 16-16v-192c0-8.832-7.168-16-16-16zM448 608h160v160h-160v-160zM368 576h-192c-8.832 0-16 7.168-16 16v192c0 8.832 7.168 16 16 16h192c8.832 0 16-7.168 16-16v-192c0-8.832-7.168-16-16-16zM192 608h160v160h-160v-160zM880 576h-192c-8.832 0-16 7.168-16 16v192c0 8.832 7.168 16 16 16h192c8.832 0 16-7.168 16-16v-192c0-8.832-7.168-16-16-16zM704 608h160v160h-160v-160zM624 320h-192c-8.832 0-16 7.168-16 16v192c0 8.832 7.168 16 16 16h192c8.832 0 16-7.168 16-16v-192c0-8.832-7.168-16-16-16zM448 352h160v160h-160v-160zM368 320h-192c-8.832 0-16 7.168-16 16v192c0 8.832 7.168 16 16 16h192c8.832 0 16-7.168 16-16v-192c0-8.832-7.168-16-16-16zM192 352h160v160h-160v-160zM880 320h-192c-8.832 0-16 7.168-16 16v192c0 8.832 7.168 16 16 16h192c8.832 0 16-7.168 16-16v-192c0-8.832-7.168-16-16-16zM704 352h160v160h-160v-160zM624 64h-192c-8.832 0-16 7.168-16 16v192c0 8.832 7.168 16 16 16h192c8.832 0 16-7.168 16-16v-192c0-8.832-7.168-16-16-16zM448 96h160v160h-160v-160zM368 64h-192c-8.832 0-16 7.168-16 16v192c0 8.832 7.168 16 16 16h192c8.832 0 16-7.168 16-16v-192c0-8.832-7.168-16-16-16zM192 96h160v160h-160v-160zM880 64h-192c-8.832 0-16 7.168-16 16v192c0 8.832 7.168 16 16 16h192c8.832 0 16-7.168 16-16v-192c0-8.832-7.168-16-16-16zM704 96h160v160h-160v-160z"/>
<glyph unicode="" glyph-name="view-module-2" d="M448 960.256h-426.667c-11.776 0-21.333-9.557-21.333-21.333v-426.667c0-11.776 9.557-21.333 21.333-21.333h426.667c11.776 0 21.333 9.557 21.333 21.333v426.667c0 11.776-9.557 21.333-21.333 21.333zM426.667 533.589h-384v384h384v-384zM1002.667 960.256h-426.667c-11.776 0-21.333-9.557-21.333-21.333v-426.667c0-11.776 9.557-21.333 21.333-21.333h426.667c11.776 0 21.333 9.557 21.333 21.333v426.667c0 11.776-9.557 21.333-21.333 21.333zM981.333 533.589h-384v384h384v-384zM448 405.589h-426.667c-11.776 0-21.333-9.557-21.333-21.333v-426.667c0-11.776 9.557-21.333 21.333-21.333h426.667c11.776 0 21.333 9.557 21.333 21.333v426.667c0 11.776-9.557 21.333-21.333 21.333zM426.667-21.077h-384v384h384v-384zM1002.667 405.589h-426.667c-11.776 0-21.333-9.557-21.333-21.333v-426.667c0-11.776 9.557-21.333 21.333-21.333h426.667c11.776 0 21.333 9.557 21.333 21.333v426.667c0 11.776-9.557 21.333-21.333 21.333zM981.333-21.077h-384v384h384v-384z"/>
<glyph unicode="" glyph-name="filter-2" d="M1021.952 948.011c-3.499 7.467-11.051 12.245-19.285 12.245h-981.333c-8.235 0-15.787-4.779-19.285-12.245-3.541-7.467-2.432-16.299 2.816-22.699l421.803-509.952v-457.771c0-8.619 5.205-16.427 13.184-19.712 2.603-1.109 5.419-1.621 8.149-1.621 5.547 0 11.008 2.176 15.104 6.229l128 128c3.968 4.011 6.229 9.429 6.229 15.104v329.771l421.803 509.952c5.248 6.4 6.357 15.232 2.816 22.699zM559.531 436.693c-3.115-3.84-4.864-8.661-4.864-13.611v-328.661l-85.333-85.333v413.995c0 4.949-1.749 9.771-4.864 13.611l-397.824 480.896h890.667l-397.781-480.896z"/>
<glyph unicode="" glyph-name="navigation-show-more-1" d="M128 576.256c-70.571 0-128-57.429-128-128s57.429-128 128-128 128 57.429 128 128-57.429 128-128 128zM128 362.923c-47.061 0-85.333 38.272-85.333 85.333s38.272 85.333 85.333 85.333 85.333-38.272 85.333-85.333-38.272-85.333-85.333-85.333zM512 576.256c-70.571 0-128-57.429-128-128s57.429-128 128-128 128 57.429 128 128-57.429 128-128 128zM512 362.923c-47.061 0-85.333 38.272-85.333 85.333s38.272 85.333 85.333 85.333 85.333-38.272 85.333-85.333-38.272-85.333-85.333-85.333zM896 576.256c-70.571 0-128-57.429-128-128s57.429-128 128-128 128 57.429 128 128-57.429 128-128 128zM896 362.923c-47.061 0-85.333 38.272-85.333 85.333s38.272 85.333 85.333 85.333 85.333-38.272 85.333-85.333-38.272-85.333-85.333-85.333z"/>
<glyph unicode="" glyph-name="navigation-show-more-2" d="M512 704.256c70.571 0 128 57.429 128 128s-57.429 128-128 128-128-57.429-128-128 57.429-128 128-128zM512 917.589c47.061 0 85.333-38.272 85.333-85.333s-38.272-85.333-85.333-85.333-85.333 38.272-85.333 85.333 38.272 85.333 85.333 85.333zM512 576.256c-70.571 0-128-57.429-128-128s57.429-128 128-128 128 57.429 128 128-57.429 128-128 128zM512 362.923c-47.061 0-85.333 38.272-85.333 85.333s38.272 85.333 85.333 85.333 85.333-38.272 85.333-85.333-38.272-85.333-85.333-85.333zM512 192.256c-70.571 0-128-57.429-128-128s57.429-128 128-128 128 57.429 128 128-57.429 128-128 128zM512-21.077c-47.061 0-85.333 38.272-85.333 85.333s38.272 85.333 85.333 85.333 85.333-38.272 85.333-85.333-38.272-85.333-85.333-85.333z"/>
<glyph unicode="" glyph-name="mobile-phone-rotate-1" d="M451.968 846.72c-32.213 32.256-88.491 32.256-120.661 0l-211.2-211.2c-16.128-16.085-25.003-37.504-25.003-60.331 0-22.784 8.875-44.203 25.003-60.331l422.357-422.357c16.128-16.128 37.547-25.003 60.331-25.003s44.203 8.875 60.331 25.003l211.2 211.2c16.128 16.085 25.003 37.504 25.003 60.331 0 22.784-8.875 44.203-25.003 60.331l-422.357 422.357zM240.768 454.485l271.531 271.531 271.531-271.531-271.531-271.531-271.531 271.531zM137.771 575.189c0 11.435 4.437 22.144 12.501 30.165l211.243 211.2c8.021 8.064 18.731 12.501 30.123 12.501s22.101-4.48 30.165-12.501l60.331-60.331-271.531-271.531-60.373 60.331c-8.021 8.064-12.459 18.773-12.459 30.165zM844.16 333.824l-211.2-211.2c-16.128-16.085-44.203-16.085-60.331 0l-30.165 30.165 271.531 271.531 30.165-30.165c8.064-8.064 12.501-18.773 12.501-30.165s-4.437-22.101-12.501-30.165zM240.768 584.021c5.461 0 10.923 2.091 15.104 6.229l120.704 120.704c8.32 8.32 8.32 21.845 0 30.165s-21.845 8.32-30.165 0l-120.747-120.704c-8.32-8.32-8.32-21.845 0-30.165 4.181-4.181 9.643-6.229 15.104-6.229zM1020.715 651.733c-71.808 114.219-195.371 182.315-321.92 183.979l56.832 43.648c9.344 7.168 11.093 20.565 3.925 29.909-7.125 9.301-20.523 11.008-29.909 3.925l-110.891-85.205c-5.248-4.053-8.32-10.283-8.32-16.896 0-4.779 2.048-9.045 4.864-12.715 0.555-0.853 1.195-1.493 1.835-2.261 0.597-0.64 0.896-1.408 1.579-1.963l1.408-1.067c0.683-0.555 1.28-1.109 2.005-1.536l107.477-82.859c3.883-2.987 8.448-4.437 13.013-4.437 6.4 0 12.715 2.859 16.896 8.277 7.168 9.344 5.461 22.741-3.883 29.952l-66.347 51.115c115.456 1.92 229.504-60.032 295.296-164.651 4.053-6.4 11.008-9.941 18.091-9.941 3.883 0 7.808 1.024 11.349 3.285 9.984 6.272 12.971 19.413 6.699 29.44zM434.688 100.523c-0.597 0.597-0.896 1.365-1.536 1.877l-1.323 1.024c-0.683 0.555-1.323 1.109-2.091 1.579l-107.477 82.816c-9.344 7.168-22.741 5.461-29.909-3.925-7.168-9.344-5.461-22.699 3.883-29.909l66.347-51.072c-115.499-1.877-229.504 59.989-295.253 164.608-6.272 9.856-19.413 13.013-29.397 6.656-9.984-6.229-12.971-19.413-6.699-29.397 71.68-114.005 194.901-182.613 321.237-184.448l-56.192-43.179c-9.344-7.168-11.093-20.565-3.925-29.909 4.139-5.461 10.453-8.32 16.896-8.32 4.523 0 9.088 1.451 12.971 4.437l110.933 85.205c5.248 4.053 8.32 10.283 8.32 16.896 0 4.736-2.005 9.003-4.864 12.715-0.555 0.853-1.28 1.579-1.92 2.347z"/>
<glyph unicode="" glyph-name="mobile-phone-portrait" d="M704 960.256h-384c-58.795 0-106.667-47.829-106.667-106.667v-810.667c0-58.837 47.872-106.667 106.667-106.667h384c58.795 0 106.667 47.829 106.667 106.667v810.667c0 58.837-47.829 106.667-106.667 106.667zM256 746.923h512v-597.333h-512v597.333zM320 917.589h384c35.328 0 64-28.715 64-64v-64h-512v64c0 35.285 28.715 64 64 64zM704-21.077h-384c-35.285 0-64 28.715-64 64v64h512v-64c0-35.285-28.672-64-64-64zM618.667 64.256h-213.333c-11.776 0-21.333-9.557-21.333-21.333s9.557-21.333 21.333-21.333h213.333c11.776 0 21.333 9.557 21.333 21.333s-9.515 21.333-21.333 21.333zM554.667 853.589c0-23.564-19.103-42.667-42.667-42.667s-42.667 19.103-42.667 42.667c0 23.564 19.103 42.667 42.667 42.667s42.667-19.103 42.667-42.667z"/>
<glyph unicode="" glyph-name="fax-machine" d="M554.667 874.923h192v-42.667h-192v42.667zM554.667 789.589h298.667v-42.667h-298.667v42.667zM960 704.256h-21.333v149.333c0 6.485-2.944 12.629-8.021 16.683l-106.667 85.333c-3.755 2.987-8.448 4.651-13.312 4.651h-320c-11.776 0-21.333-9.557-21.333-21.333v-234.667h-42.667v21.333c0 58.837-47.872 106.667-106.667 106.667h-106.667v106.667c0 11.776-9.557 21.333-21.333 21.333s-21.333-9.557-21.333-21.333v-108.843c-48.64-9.899-85.333-52.949-85.333-104.491v-21.333h-21.333c-35.285 0-64-28.715-64-64v-554.667c0-35.285 28.715-64 64-64h23.509c9.899-48.64 52.992-85.333 104.491-85.333h128c51.499 0 94.592 36.693 104.491 85.333h535.509c35.285 0 64 28.715 64 64v554.667c0 35.285-28.715 64-64 64zM85.333 64.256h-21.333c-11.776 0-21.333 9.6-21.333 21.333v554.667c0 11.733 9.557 21.333 21.333 21.333h21.333v-597.333zM384 42.923c0-35.285-28.715-64-64-64h-128c-35.285 0-64 28.715-64 64v682.667c0 35.285 28.715 64 64 64h128c35.285 0 64-28.715 64-64v-682.667zM512 917.589h291.2l92.8-74.24v-139.093h-384v213.333zM981.333 85.589c0-11.733-9.557-21.333-21.333-21.333h-533.333v597.333h533.333c11.776 0 21.333-9.6 21.333-21.333v-554.667zM832 618.923h-256c-11.776 0-21.333-9.557-21.333-21.333v-85.333c0-11.776 9.557-21.333 21.333-21.333h256c11.776 0 21.333 9.557 21.333 21.333v85.333c0 11.776-9.557 21.333-21.333 21.333zM810.667 533.589h-213.333v42.667h213.333v-42.667zM554.667 405.589h42.667v-42.667h-42.667v42.667zM682.667 405.589h42.667v-42.667h-42.667v42.667zM810.667 405.589h42.667v-42.667h-42.667v42.667zM554.667 320.256h42.667v-42.667h-42.667v42.667zM682.667 320.256h42.667v-42.667h-42.667v42.667zM810.667 320.256h42.667v-42.667h-42.667v42.667zM554.667 234.923h42.667v-42.667h-42.667v42.667zM682.667 234.923h42.667v-42.667h-42.667v42.667zM810.667 234.923h42.667v-42.667h-42.667v42.667z"/>
<glyph unicode="" glyph-name="phone-5" d="M946.176 212.907l-104.661 104.661c-45.269 45.312-124.373 45.397-169.771 0l-21.163-21.163c-103.851 86.656-203.605 186.453-290.389 290.432l21.205 21.163c46.763 46.848 46.763 122.965 0 169.728l-104.704 104.704c-45.312 45.312-124.416 45.312-169.771 0l-57.344-57.429c-56.619-56.619-65.621-146.261-21.419-213.077 168.619-254.976 392.533-478.891 647.467-647.509 27.819-18.432 60.16-28.117 93.483-28.117 45.269 0 87.723 17.579 119.637 49.493l57.429 57.429c22.656 22.656 35.157 52.779 35.157 84.864 0 32.043-12.501 62.208-35.157 84.821zM916.011 73.387l-57.429-57.429c-41.429-41.472-110.251-48.384-159.403-15.957-250.197 165.504-469.931 385.195-635.435 635.435-33.067 50.048-26.325 117.077 16 159.403l57.387 57.429c14.592 14.635 34.048 22.656 54.699 22.656s40.107-8.021 54.699-22.656l104.704-104.704c30.165-30.123 30.123-79.189 0-109.355l-34.901-34.901c-7.765-7.765-8.363-20.139-1.408-28.587 95.36-116.437 207.232-228.352 323.541-323.584 8.491-6.955 20.821-6.272 28.587 1.408l34.859 34.859c29.269 29.269 80.213 29.269 109.397 0l104.661-104.661c14.635-14.549 22.699-34.005 22.699-54.656s-8.064-40.064-22.656-54.699z"/>
<glyph unicode="" glyph-name="phone-circle" d="M512 960.256c-282.325 0-512-229.675-512-512s229.675-512 512-512c186.88 0 255.104 70.016 279.424 128.725 19.925 48.043 13.952 96.64 2.56 124.032l14.208 14.208c16.811 16.853 26.709 38.699 27.904 61.525 1.237 23.723-6.955 45.611-23.083 61.696l-66.091 66.091c-31.445 31.445-89.259 29.099-123.179-4.864l-10.88-10.837c-62.037 51.328-121.088 110.336-172.288 172.288l10.837 10.837c35.328 35.285 37.504 90.581 4.907 123.264l-66.133 66.091c-31.403 31.445-89.259 29.056-123.179-4.949l-40.32-40.235c-41.643-41.643-50.859-105.301-21.888-151.296 104.192-165.205 246.613-307.627 411.819-411.776 17.579-11.136 38.272-16.981 59.819-16.981 29.909 0 59.392 11.819 82.987 31.915 3.84-20.309 4.523-51.541-11.136-82.731-30.933-61.739-112.683-94.336-236.288-94.336-258.773 0-469.333 210.56-469.333 469.333s210.56 469.333 469.333 469.333 469.333-210.56 469.333-469.333c0-95.317-28.373-187.051-82.091-265.259-6.656-9.728-4.224-22.997 5.504-29.653s23.040-4.181 29.653 5.504c58.624 85.333 89.6 185.429 89.6 289.408 0 282.325-229.675 512-512 512zM639.36 177.152c-159.872 100.779-297.685 238.592-398.507 398.464-18.432 29.269-11.691 70.656 16.043 98.347l40.32 40.235c9.856 9.899 22.955 15.573 35.883 15.573 10.496 0 20.096-3.797 26.965-10.667l66.091-66.048c16-16 13.781-44.203-4.907-62.933l-24.448-24.448c-7.68-7.723-8.363-19.925-1.579-28.416 59.776-74.667 130.944-145.792 205.781-205.781 8.448-6.741 20.736-6.187 28.416 1.579l24.533 24.448c17.877 17.877 47.488 20.181 62.891 4.864l66.091-66.091c7.424-7.467 11.221-17.835 10.624-29.312-0.64-12.331-6.187-24.235-15.488-33.621l-40.363-40.235c-26.88-26.965-69.76-33.92-98.347-15.957z"/>
<glyph unicode="" glyph-name="bubble-chat-2" d="M512 922.88c-282.325 0-512-189.184-512-421.675 0-109.824 50.219-212.693 141.867-291.499l-102.827-205.269c-4.053-8.107-2.56-17.92 3.797-24.448 4.096-4.224 9.643-6.443 15.275-6.443 3.029 0 6.144 0.64 9.003 2.005l274.645 127.829c54.613-15.872 111.872-23.893 170.24-23.893 282.325 0 512 189.184 512 421.675s-229.675 421.717-512 421.717zM512 122.197c-57.003 0-112.725 8.192-165.675 24.363-5.035 1.536-10.453 1.195-15.232-1.067l-226.475-105.429 83.029 165.675c4.48 9.003 2.091 19.925-5.76 26.24-89.771 71.851-139.221 167.424-139.221 269.227 0 208.981 210.56 379.008 469.333 379.008s469.333-170.027 469.333-379.008-210.56-379.008-469.333-379.008z"/>
<glyph unicode="" glyph-name="email" d="M896 789.589h-768c-47.061 0-85.333-38.229-85.333-85.333v-469.333c0-47.061 38.272-85.333 85.333-85.333h768c47.061 0 85.333 38.272 85.333 85.333v469.333c0 47.104-38.272 85.333-85.333 85.333zM896 746.923c2.432 0 4.48-0.981 6.784-1.365l-390.784-312.661-390.784 312.661c2.304 0.384 4.352 1.365 6.784 1.365h768zM938.667 234.923c0-23.509-19.157-42.667-42.667-42.667h-768c-23.509 0-42.667 19.157-42.667 42.667v469.333c0 4.651 1.28 8.96 2.645 13.227l410.667-328.533c3.925-3.115 8.661-4.693 13.355-4.693s9.429 1.579 13.312 4.651l410.667 328.533c1.408-4.224 2.688-8.533 2.688-13.184v-469.333z"/>
<glyph unicode="" glyph-name="account-circle-1" d="M512 960.256c-282.325 0-512-229.675-512-512 0-135.68 52.565-263.552 148.053-360.021 96.939-98.005 226.176-151.979 363.947-151.979 137.984 0 267.435 54.187 364.459 152.448 95.147 96.427 147.541 224.128 147.541 359.552 0 282.325-229.675 512-512 512zM198.613 99.669c43.904 24.021 108.075 47.403 170.709 70.144 21.931 7.936 43.819 15.872 64.853 23.851 8.32 3.157 13.781 11.093 13.781 19.968v106.624c0 8.917-5.888 16.981-14.251 20.139-2.005 0.725-49.707 19.456-49.707 107.861 0 11.776-8.832 21.077-20.565 21.077-2.005 1.365-5.888 9.301-5.888 21.589s3.883 20.224 5.12 21.333c11.776 0 21.333 9.557 21.333 21.333 0 5.291-1.579 10.923-5.035 23.211-6.272 22.315-22.912 81.664-8.277 100.907 1.621 2.219 10.453 8.32 30.464 4.309 11.093-2.389 22.144 4.651 24.875 15.744 6.912 27.691 56.576 47.829 117.973 47.829s111.061-20.139 117.973-47.829c9.771-39.125-7.595-93.355-15.957-119.424-4.139-13.013-6.016-18.901-6.016-24.747 0-11.776 8.832-21.077 20.565-21.077 1.963-1.365 5.845-9.301 5.845-21.589s-3.883-20.224-5.12-21.333c-11.776 0-21.333-9.557-21.333-21.333 0-88.405-47.701-107.136-49.408-107.776-8.661-2.901-14.549-11.051-14.549-20.224v-106.667c0-8.875 5.504-16.853 13.824-20.011 23.168-8.661 46.293-17.024 68.864-25.216 64.427-23.296 125.568-45.483 167.211-68.224-86.357-78.037-196.565-121.216-313.899-121.216-117.077 0-227.072 43.008-313.387 120.747zM857.941 131.157c-44.672 26.667-110.208 50.389-184.747 77.312-17.92 6.485-36.181 13.141-54.528 19.883v78.848c21.376 13.184 59.051 47.275 63.573 125.269 16.469 9.643 26.88 31.019 26.88 58.453 0 24.661-8.448 44.501-22.187 55.211 10.368 32.299 29.056 91.52 16.427 141.952-14.805 59.179-95.104 80.171-159.36 80.171-57.259 0-127.232-16.683-152.277-62.123-30.165 1.792-46.72-11.605-55.040-22.613-27.093-35.797-9.216-101.035 0.853-136.96-13.995-10.667-22.656-30.677-22.656-55.637 0-27.435 10.411-48.811 26.88-58.453 4.523-77.995 42.197-112.043 63.573-125.269v-78.848c-16.555-6.187-33.536-12.331-50.517-18.475-69.333-25.131-140.757-51.029-188.288-79.275-80 86.869-123.861 198.997-123.861 317.653 0 258.773 210.56 469.333 469.333 469.333s469.333-210.56 469.333-469.333c0-118.357-43.691-230.272-123.392-317.099z"/>
<glyph unicode="" glyph-name="arrow-down-7" d="M533.333-63.915c-11.776 0-21.333 9.557-21.333 21.333v981.333c0 11.776 9.557 21.333 21.333 21.333s21.333-9.557 21.333-21.333v-981.333c0-11.776-9.557-21.333-21.333-21.333zM533.333-63.915c-6.144 0-11.947 2.645-16 7.253l-469.333 533.333c-7.765 8.832-6.912 22.315 1.92 30.080 8.789 7.808 22.315 6.912 30.123-1.92l453.291-515.115 453.333 515.115c7.808 8.832 21.333 9.728 30.123 1.92 8.875-7.765 9.728-21.248 1.92-30.080l-469.333-533.333c-4.096-4.608-9.899-7.253-16.043-7.253z"/>
<glyph unicode="" glyph-name="arrow-left-7" d="M1002.667 405.419h-981.333c-11.776 0-21.333 9.557-21.333 21.333s9.557 21.333 21.333 21.333h981.333c11.776 0 21.333-9.557 21.333-21.333s-9.557-21.333-21.333-21.333zM554.667-63.915c-5.035 0-10.027 1.749-14.080 5.333l-533.333 469.333c-4.608 4.053-7.253 9.899-7.253 16s2.645 11.947 7.253 16l533.333 469.333c8.832 7.808 22.272 6.955 30.123-1.92 7.765-8.832 6.912-22.315-1.92-30.080l-515.157-453.333 515.115-453.333c8.875-7.765 9.728-21.248 1.92-30.080-4.224-4.779-10.069-7.253-16-7.253z"/>
<glyph unicode="" glyph-name="arrow-right-7" d="M1002.667 405.419h-981.333c-11.776 0-21.333 9.557-21.333 21.333s9.557 21.333 21.333 21.333h981.333c11.776 0 21.333-9.557 21.333-21.333s-9.557-21.333-21.333-21.333zM469.333-63.915c-5.931 0-11.776 2.475-16 7.253-7.765 8.832-6.912 22.315 1.92 30.080l515.115 453.333-515.115 453.333c-8.875 7.765-9.728 21.248-1.92 30.080 7.808 8.875 21.333 9.728 30.123 1.92l533.333-469.333c4.565-4.053 7.211-9.856 7.211-16s-2.645-11.947-7.253-16l-533.333-469.333c-4.053-3.584-9.045-5.333-14.080-5.333z"/>
<glyph unicode="" glyph-name="arrow-up-7" d="M490.667-63.915c-11.776 0-21.333 9.557-21.333 21.333v981.333c0 11.776 9.557 21.333 21.333 21.333s21.333-9.557 21.333-21.333v-981.333c0-11.776-9.557-21.333-21.333-21.333zM960 384.085c-5.931 0-11.776 2.475-16 7.253l-453.333 515.115-453.333-515.115c-7.808-8.875-21.291-9.728-30.123-1.92-8.875 7.765-9.728 21.248-1.92 30.080l469.333 533.333c8.107 9.259 23.936 9.259 32.043 0l469.333-533.333c7.765-8.832 6.912-22.315-1.92-30.080-4.053-3.584-9.045-5.333-14.080-5.333z"/>
<glyph unicode="" glyph-name="logo-google" d="M1000.96 350.933c-3.584 7.381-11.008 11.989-19.157 11.989h-281.387c-4.907 0-9.728-1.707-13.525-4.821l-104.235-85.333c-6.955-5.76-9.6-15.147-6.571-23.68 3.029-8.491 11.051-14.165 20.096-14.165h171.819v-151.68c0-5.12 0.341-9.515 0.64-13.355 0.043-0.683 0.128-1.323 0.171-2.005-2.603-1.237-7.467-3.285-16.427-6.229-50.859-13.355-115.541-17.579-175.317-12.501-187.008 15.531-337.067 159.445-373.461 358.229-32 175.061 47.616 347.221 193.621 418.688 80.128 39.168 162.432 46.507 241.749 21.077 51.456-16.427 99.115-45.013 141.952-85.12l-25.259-45.824c-4.139-7.552-3.371-16.896 2.005-23.595 5.333-6.784 14.251-9.771 22.528-7.211l62.123 17.664c3.541 0.981 6.827 2.901 9.387 5.504l95.957 97.877c4.181 4.309 6.357 10.069 6.101 16.085-0.299 5.973-3.115 11.52-7.723 15.275-93.952 77.824-231.040 122.453-376.107 122.453-100.651 0-195.499-21.035-274.261-60.885-173.739-87.893-289.707-261.376-295.381-441.856-6.485-203.435 112.384-357.675 225.792-434.176 84.437-57.003 196.992-87.083 325.419-87.083 130.048 0 266.88 31.403 375.424 86.229 7.211 3.584 11.733 10.965 11.733 19.029v209.835l59.947 77.184c4.992 6.4 5.931 15.104 2.347 22.4zM900.48 271.787c-2.901-3.755-4.48-8.363-4.48-13.056v-203.904c-100.821-48.341-225.536-75.904-344.491-75.904-119.893 0-224.171 27.563-301.568 79.744-103.979 70.187-212.949 211.413-207.061 397.483 5.248 165.205 112 324.181 272.043 405.163 71.765 36.267 162.347 56.277 255.019 56.277 125.995 0 244.949-35.584 330.539-98.304l-75.264-76.757-7.552-2.133 8.405 15.275c4.608 8.32 3.157 18.688-3.541 25.387-50.603 50.901-107.989 86.869-170.624 106.795-89.685 28.757-183.467 20.565-273.493-23.424-163.072-79.915-252.203-270.976-216.704-464.683 39.253-214.485 208.64-376.149 411.861-393.088 64.981-5.589 133.163-1.067 190.848 14.123 35.072 11.349 49.323 21.12 46.763 52.608-0.256 2.816-0.512 6.059-0.512 9.856v173.013c0 11.776-9.557 21.333-21.333 21.333h-133.419l52.139 42.667h230.144l-37.717-48.469z"/>
<glyph unicode="" glyph-name="logo-google-plus-1" d="M387.029 342.827c-19.669 6.016-40.491 9.216-62.080 9.472h-2.389c-101.76 0-187.691-62.379-187.691-136.235 0-78.507 75.947-140.032 172.928-140.032 157.312 0 190.336 74.069 190.336 136.235 0 8.747-1.067 17.835-3.328 27.435-9.557 37.419-40.875 58.752-84.395 88.448l-17.408 11.904c-1.877 1.152-3.84 2.133-5.973 2.773zM453.333 229.461c1.408-5.931 2.091-11.733 2.091-17.237 0-23.125 0-93.568-147.669-93.568-73.045 0-130.261 42.752-130.261 97.365 0 48.981 69.12 93.568 145.024 93.568v21.333l2.176-21.333c16.171-0.171 31.915-2.432 46.805-6.699l14.976-10.197c38.272-26.069 61.355-41.813 66.859-63.232zM584.917 917.589h-260.309c-30.763 0-61.952-5.376-92.715-16-103.381-35.541-175.616-124.629-175.616-216.619 0-120.704 88.491-215.467 209.451-229.163-0.171-2.645-0.256-5.248-0.256-7.851 0-10.752 1.365-21.333 4.139-31.616-112.853-8.491-212.011-67.755-251.989-152.875-11.691-24.875-17.621-50.261-17.621-75.392 0-25.003 6.4-49.109 18.987-71.765 27.904-49.877 86.357-88.235 164.565-107.947 39.125-9.899 81.067-14.933 124.715-14.933 39.509 0 77.312 5.12 112.341 15.275 112.555 32.64 185.259 116.693 185.259 214.101 0 90.923-30.464 147.925-108.629 203.264-26.539 18.773-46.336 41.941-50.859 49.92 0.299 8.875 3.413 14.635 33.92 38.4 57.728 45.184 89.515 105.131 89.515 168.875 0 41.216-9.259 79.829-26.496 112.043 2.731 1.152 5.333 2.688 7.851 4.437l58.112 42.112c14.848 10.624 20.992 29.44 15.317 46.805-5.547 17.323-21.547 28.928-39.68 28.928zM526.677 834.517h-20.821c-8.277 0-15.829-4.779-19.328-12.288s-2.347-16.384 2.944-22.699c24.32-29.184 37.76-70.4 37.76-116.224 0-50.304-25.984-98.347-73.088-135.253-40.96-31.915-50.389-45.995-50.389-76.245 1.28-24.917 46.976-65.024 68.907-80.555 66.901-47.317 90.624-91.435 90.624-168.405 0-77.952-60.629-145.92-154.496-173.141-66.347-19.2-147.371-16.981-214.741 0.043-66.731 16.811-115.669 47.829-137.771 87.381-9.045 16.128-13.611 33.323-13.611 50.944 0 18.816 4.565 38.059 13.611 57.259 36.352 77.355 133.291 129.365 244.651 129.365 7.595 0 14.635 4.053 18.432 10.624 3.84 6.571 3.84 14.677 0.085 21.291-7.595 13.355-11.307 26.88-11.307 41.344 0 7.211 0.939 14.507 2.944 22.272 1.579 6.272 0.213 12.928-3.712 18.133s-9.984 8.277-16.512 8.448c-111.189 2.517-191.957 81.664-191.957 188.16 0 74.069 60.373 146.56 146.816 176.299 26.325 9.088 52.864 13.653 78.891 13.653l259.755 1.579-57.685-41.984zM289.365 839.808c-0.043 0-0.128 0-0.171 0-26.368 0-50.688-11.179-68.395-31.445-25.515-29.099-36.437-73.941-29.952-123.008 11.563-88.32 75.776-161.835 144.768-163.84 27.136 0 51.029 10.88 68.992 31.403 25.728 29.312 37.205 76.203 30.72 125.397-11.563 88.448-74.496 159.36-143.659 161.451l-2.304 0.043zM393.045 672.768c4.821-36.651-3.072-71.808-20.523-91.733-9.899-11.349-22.016-16.853-37.205-16.853-45.781 1.323-93.483 60.587-102.187 126.72-4.821 36.907 2.347 69.419 19.755 89.344 9.771 11.221 21.973 16.896 36.267 16.896v21.333l1.707-21.333c46.72-1.451 93.525-58.368 102.187-124.373zM1002.667 576.256h-106.667v106.667c0 11.776-9.557 21.333-21.333 21.333h-85.333c-11.776 0-21.333-9.557-21.333-21.333v-106.667h-106.667c-11.776 0-21.333-9.557-21.333-21.333v-85.333c0-11.776 9.557-21.333 21.333-21.333h106.667v-106.667c0-11.776 9.557-21.333 21.333-21.333h85.333c11.776 0 21.333 9.557 21.333 21.333v106.667h106.667c11.776 0 21.333 9.557 21.333 21.333v85.333c0 11.776-9.557 21.333-21.333 21.333zM981.333 490.923h-106.667c-11.776 0-21.333-9.557-21.333-21.333v-106.667h-42.667v106.667c0 11.776-9.557 21.333-21.333 21.333h-106.667v42.667h106.667c11.776 0 21.333 9.557 21.333 21.333v106.667h42.667v-106.667c0-11.776 9.557-21.333 21.333-21.333h106.667v-42.667z"/>
<glyph unicode="" glyph-name="logo-facebook" d="M816.597 654.549c-4.053 4.48-9.813 7.040-15.829 7.040h-160.768v59.947c0 12.032 2.475 25.813 21.845 25.813h127.488c11.776 0 21.333 9.557 21.333 21.333v168.192c0 11.733-9.515 21.291-21.291 21.333l-184.789 0.555c-204.672 0-220.587-173.739-220.587-226.987v-70.187h-106.667c-11.776 0-21.333-9.557-21.333-21.333v-170.667c0-11.776 9.557-21.333 21.333-21.333h106.667v-490.667c0-11.776 9.557-21.333 21.333-21.333h213.333c11.776 0 21.333 9.557 21.333 21.333v490.667h142.976c10.923 0 20.096 8.235 21.205 19.115l17.792 170.667c0.64 6.016-1.323 11.989-5.376 16.512zM763.733 490.923h-145.067c-11.776 0-21.333-9.557-21.333-21.333v-490.667h-170.667v490.667c0 11.776-9.557 21.333-21.333 21.333h-106.667v128h106.667c11.776 0 21.333 9.557 21.333 21.333v91.52c0 68.821 23.125 184.32 177.877 184.32l163.456-0.512v-125.568h-106.155c-29.781 0-64.512-17.963-64.512-68.48v-81.28c0-11.776 9.557-21.333 21.333-21.333h158.421l-13.355-128z"/>
<glyph unicode="" glyph-name="logo-twitter-bird" d="M1015.040 767.744c-6.144 7.253-16.341 9.643-25.003 5.717-14.763-6.528-27.861-9.813-40.064-10.027 13.781 16.299 19.285 34.005 26.624 57.515l3.755 12.032c2.688 8.448-0.128 17.664-7.040 23.168-6.955 5.547-16.597 6.229-24.192 1.621-32.896-19.499-68.267-33.664-105.301-42.112-39.851 37.803-93.269 59.264-148.437 59.264-118.656 0-215.211-96.555-215.211-215.211 0-6.997 0.341-13.995 0.981-20.949-139.349 14.080-268.544 83.456-357.717 192.853-4.437 5.419-11.52 8.149-18.219 7.808-6.997-0.64-13.269-4.523-16.768-10.581-19.072-32.811-29.141-70.229-29.141-108.245 0-44.587 13.696-87.211 38.315-122.709-2.773 1.323-5.504 2.731-8.192 4.267-6.613 3.669-14.677 2.347-21.163-1.493-6.528-3.84-10.539-12.075-10.539-19.627 0-69.376 33.536-132.651 86.357-172.331-4.992-0.683-9.643-3.115-13.056-6.997-4.992-5.632-6.613-13.483-4.352-20.651 22.229-69.205 77.184-121.131 144.64-140.843-68.011-39.339-147.541-55.68-227.755-46.336-9.813 1.152-19.2-4.651-22.571-13.995-3.371-9.387 0.213-19.797 8.576-25.173 92.373-59.221 199.125-90.453 308.736-90.453 358.613 0 572.928 291.328 572.928 572.971 0 4.779-0.043 9.557-0.128 14.293 4.864 3.413 9.813 6.784 14.805 10.197 33.28 22.741 67.712 46.251 90.581 80.427 5.248 7.893 4.651 18.347-1.451 25.6zM901.803 696.917c-8.491-5.76-16.853-11.52-24.875-17.323-5.845-4.224-9.131-11.093-8.832-18.261 0.341-8.021 0.469-16 0.469-24.107-0.043-260.693-198.357-530.304-530.261-530.304-72.832 0-144.299 14.933-210.475 43.605 77.952 7.509 151.083 36.693 213.461 85.589 7.125 5.547 9.941 15.019 7.083 23.552s-10.795 14.379-19.84 14.549c-62.293 1.152-118.144 35.584-147.627 88.533 19.925-0.128 39.979 2.304 59.307 7.509 9.557 2.645 16.043 11.477 15.701 21.333-0.341 9.899-7.424 18.261-17.109 20.224-69.376 13.952-122.325 69.077-135.339 137.557 20.181-6.827 41.344-10.752 62.677-11.435 10.325-0.683 18.091 5.675 21.035 14.763s-0.512 18.987-8.448 24.277c-48.043 32.128-76.757 85.803-76.757 143.616 0 20.139 3.499 39.979 10.283 58.709 101.419-110.592 242.944-177.579 393.216-185.131 6.997-0.427 13.141 2.475 17.451 7.637 4.309 5.12 5.931 11.989 4.437 18.517-2.944 12.715-4.437 25.984-4.437 39.381 0 95.147 77.397 172.544 172.544 172.544 47.531 0 93.397-19.883 125.952-54.528 5.077-5.333 12.501-7.765 19.669-6.357 27.563 5.461 54.315 13.653 80.043 24.533-5.76-8.875-13.781-15.573-28.373-24.277-6.699-4.011-10.667-11.392-10.368-19.2s4.864-14.805 11.861-18.261c14.165-6.997 28.075-11.179 42.197-12.757-11.179-8.448-22.997-16.555-34.645-24.491z"/>
<glyph unicode="" glyph-name="logo-twitter" d="M746.667 234.923h-213.333c-58.795 0-106.667 47.872-106.667 106.667v106.667h320c82.347 0 149.333 66.987 149.333 149.333s-66.987 149.333-149.333 149.333h-320v64c0 82.347-66.987 149.333-149.333 149.333s-149.333-66.987-149.333-149.333v-512c0-199.979 162.688-362.667 362.667-362.667h256c82.347 0 149.333 66.987 149.333 149.333s-66.987 149.333-149.333 149.333zM746.667-21.077h-256c-176.469 0-320 143.531-320 320v512c0 58.795 47.872 106.667 106.667 106.667s106.667-47.872 106.667-106.667v-85.333c0-11.776 9.557-21.333 21.333-21.333h341.333c58.795 0 106.667-47.872 106.667-106.667s-47.872-106.667-106.667-106.667h-341.333c-11.776 0-21.333-9.557-21.333-21.333v-128c0-82.347 66.987-149.333 149.333-149.333h213.333c58.795 0 106.667-47.872 106.667-106.667s-47.872-106.667-106.667-106.667z"/>
<glyph unicode="" glyph-name="dining-set" d="M884.011 938.923c-1.664 0-3.115-0.597-4.651-0.896-1.579 0.299-3.029 0.896-4.693 0.896-11.776 0-21.333-9.557-21.333-21.333v-917.333c0-11.776 9.557-21.333 21.333-21.333s21.333 9.557 21.333 21.333v277.333h106.667c11.776 0 21.333 9.557 21.333 21.333 0 265.771-43.435 640-139.989 640zM896 320.256v564.437c34.517-50.176 83.072-260.907 85.248-564.437h-85.248zM298.667 661.589v213.333c0 11.776-9.557 21.333-21.333 21.333s-21.333-9.557-21.333-21.333v-213.333c0-51.541-36.693-94.592-85.333-104.491v317.824c0 11.776-9.557 21.333-21.333 21.333s-21.333-9.557-21.333-21.333v-317.824c-48.64 9.899-85.333 52.949-85.333 104.491v213.333c0 11.776-9.557 21.333-21.333 21.333s-21.333-9.557-21.333-21.333v-213.333c0-75.051 55.851-136.704 128-147.157v-514.176c0-11.776 9.557-21.333 21.333-21.333s21.333 9.557 21.333 21.333v514.176c72.149 10.453 128 72.107 128 147.157zM512 576.256c-164.651 0-298.667-134.016-298.667-298.667s134.016-298.667 298.667-298.667 298.667 134.016 298.667 298.667-134.016 298.667-298.667 298.667zM512 21.589c-141.184 0-256 114.816-256 256s114.816 256 256 256 256-114.816 256-256-114.816-256-256-256z"/>
<glyph unicode="" glyph-name="medical-box" d="M704 448.256h-106.667v106.667c0 11.776-9.557 21.333-21.333 21.333h-128c-11.776 0-21.333-9.557-21.333-21.333v-106.667h-106.667c-11.776 0-21.333-9.557-21.333-21.333v-128c0-11.776 9.557-21.333 21.333-21.333h106.667v-106.667c0-11.776 9.557-21.333 21.333-21.333h128c11.776 0 21.333 9.557 21.333 21.333v106.667h106.667c11.776 0 21.333 9.557 21.333 21.333v128c0 11.776-9.557 21.333-21.333 21.333zM682.667 320.256h-106.667c-11.776 0-21.333-9.557-21.333-21.333v-106.667h-85.333v106.667c0 11.776-9.557 21.333-21.333 21.333h-106.667v85.333h106.667c11.776 0 21.333 9.557 21.333 21.333v106.667h85.333v-106.667c0-11.776 9.557-21.333 21.333-21.333h106.667v-85.333zM917.333 746.923h-234.667v42.667c0 47.104-38.272 85.333-85.333 85.333h-170.667c-47.061 0-85.333-38.229-85.333-85.333v-42.667h-234.667c-58.837 0-106.667-47.872-106.667-106.667v-512c0-58.795 47.829-106.667 106.667-106.667h810.667c58.837 0 106.667 47.872 106.667 106.667v512c0 58.795-47.829 106.667-106.667 106.667zM384 789.589c0 23.509 19.115 42.667 42.667 42.667h170.667c23.552 0 42.667-19.157 42.667-42.667v-42.667h-256v42.667zM981.333 128.256c0-35.285-28.715-64-64-64h-810.667c-35.285 0-64 28.715-64 64v512c0 35.285 28.715 64 64 64h810.667c35.285 0 64-28.715 64-64v-512z"/>
<glyph unicode="" glyph-name="shrink-2" d="M64 832.256h-42.667c-11.776 0-21.333-9.557-21.333-21.333v-42.667c0-11.776 9.557-21.333 21.333-21.333s21.333 9.557 21.333 21.333v21.333h21.333c11.776 0 21.333 9.557 21.333 21.333s-9.557 21.333-21.333 21.333zM21.333 618.923c11.776 0 21.333 9.557 21.333 21.333v42.667c0 11.776-9.557 21.333-21.333 21.333s-21.333-9.557-21.333-21.333v-42.667c0-11.776 9.557-21.333 21.333-21.333zM192 832.256h-42.667c-11.776 0-21.333-9.557-21.333-21.333s9.557-21.333 21.333-21.333h42.667c11.776 0 21.333 9.557 21.333 21.333s-9.557 21.333-21.333 21.333zM192 149.589h-42.667c-11.776 0-21.333-9.557-21.333-21.333s9.557-21.333 21.333-21.333h42.667c11.776 0 21.333 9.557 21.333 21.333s-9.557 21.333-21.333 21.333zM320 832.256h-42.667c-11.776 0-21.333-9.557-21.333-21.333s9.557-21.333 21.333-21.333h42.667c11.776 0 21.333 9.557 21.333 21.333s-9.557 21.333-21.333 21.333zM448 832.256h-42.667c-11.776 0-21.333-9.557-21.333-21.333s9.557-21.333 21.333-21.333h42.667c11.776 0 21.333 9.557 21.333 21.333s-9.557 21.333-21.333 21.333zM320 149.589h-42.667c-11.776 0-21.333-9.557-21.333-21.333s9.557-21.333 21.333-21.333h42.667c11.776 0 21.333 9.557 21.333 21.333s-9.557 21.333-21.333 21.333zM448 149.589h-42.667c-11.776 0-21.333-9.557-21.333-21.333s9.557-21.333 21.333-21.333h42.667c11.776 0 21.333 9.557 21.333 21.333s-9.557 21.333-21.333 21.333zM576 149.589h-42.667c-11.776 0-21.333-9.557-21.333-21.333s9.557-21.333 21.333-21.333h42.667c11.776 0 21.333 9.557 21.333 21.333s-9.557 21.333-21.333 21.333zM704 149.589h-42.667c-11.776 0-21.333-9.557-21.333-21.333s9.557-21.333 21.333-21.333h42.667c11.776 0 21.333 9.557 21.333 21.333s-9.557 21.333-21.333 21.333zM832 149.589h-42.667c-11.776 0-21.333-9.557-21.333-21.333s9.557-21.333 21.333-21.333h42.667c11.776 0 21.333 9.557 21.333 21.333s-9.557 21.333-21.333 21.333zM960 192.256c-11.776 0-21.333-9.557-21.333-21.333v-21.333h-21.333c-11.776 0-21.333-9.557-21.333-21.333s9.557-21.333 21.333-21.333h42.667c11.776 0 21.333 9.557 21.333 21.333v42.667c0 11.776-9.557 21.333-21.333 21.333zM64 149.589h-21.333v21.333c0 11.776-9.557 21.333-21.333 21.333s-21.333-9.557-21.333-21.333v-42.667c0-11.776 9.557-21.333 21.333-21.333h42.667c11.776 0 21.333 9.557 21.333 21.333s-9.557 21.333-21.333 21.333zM960 320.256c-11.776 0-21.333-9.557-21.333-21.333v-42.667c0-11.776 9.557-21.333 21.333-21.333s21.333 9.557 21.333 21.333v42.667c0 11.776-9.557 21.333-21.333 21.333zM960 448.256c-11.776 0-21.333-9.557-21.333-21.333v-42.667c0-11.776 9.557-21.333 21.333-21.333s21.333 9.557 21.333 21.333v42.667c0 11.776-9.557 21.333-21.333 21.333zM21.333 234.923c11.776 0 21.333 9.557 21.333 21.333v42.667c0 11.776-9.557 21.333-21.333 21.333s-21.333-9.557-21.333-21.333v-42.667c0-11.776 9.557-21.333 21.333-21.333zM21.333 362.923c11.776 0 21.333 9.557 21.333 21.333v42.667c0 11.776-9.557 21.333-21.333 21.333s-21.333-9.557-21.333-21.333v-42.667c0-11.776 9.557-21.333 21.333-21.333zM21.333 490.923c11.776 0 21.333 9.557 21.333 21.333v42.667c0 11.776-9.557 21.333-21.333 21.333s-21.333-9.557-21.333-21.333v-42.667c0-11.776 9.557-21.333 21.333-21.333zM960 832.256h-426.667c-11.776 0-21.333-9.557-21.333-21.333s9.557-21.333 21.333-21.333h21.333v-234.667c0-11.776 9.557-21.333 21.333-21.333h362.667v-21.333c0-11.776 9.557-21.333 21.333-21.333s21.333 9.557 21.333 21.333v298.667c0 11.776-9.557 21.333-21.333 21.333zM597.333 789.589h341.333v-213.333h-341.333v213.333z"/>
<glyph unicode="" glyph-name="shrink-1" d="M1002.667 960.256h-853.333c-11.776 0-21.333-9.557-21.333-21.333v-554.667c0-11.776 9.557-21.333 21.333-21.333h42.667c11.776 0 21.333 9.557 21.333 21.333s-9.557 21.333-21.333 21.333h-21.333v512h810.667v-810.667h-512v21.333c0 11.776-9.557 21.333-21.333 21.333s-21.333-9.557-21.333-21.333v-42.667c0-11.776 9.557-21.333 21.333-21.333h554.667c11.776 0 21.333 9.557 21.333 21.333v853.333c0 11.776-9.557 21.333-21.333 21.333zM533.333 704.256c-11.776 0-21.333-9.557-21.333-21.333v-213.333c0-2.773 0.555-5.547 1.664-8.149 2.133-5.248 6.315-9.387 11.563-11.563 2.56-1.067 5.333-1.621 8.107-1.621h213.333c11.776 0 21.333 9.557 21.333 21.333s-9.557 21.333-21.333 21.333h-161.835l304.896 304.896c8.32 8.32 8.32 21.845 0 30.165s-21.845 8.32-30.165 0l-304.896-304.896v161.835c0 11.776-9.557 21.333-21.333 21.333zM64 405.589h-42.667c-11.776 0-21.333-9.557-21.333-21.333v-42.667c0-11.776 9.557-21.333 21.333-21.333s21.333 9.557 21.333 21.333v21.333h21.333c11.776 0 21.333 9.557 21.333 21.333s-9.557 21.333-21.333 21.333zM21.333 192.256c11.776 0 21.333 9.557 21.333 21.333v42.667c0 11.776-9.557 21.333-21.333 21.333s-21.333-9.557-21.333-21.333v-42.667c0-11.776 9.557-21.333 21.333-21.333zM320 405.589h-42.667c-11.776 0-21.333-9.557-21.333-21.333s9.557-21.333 21.333-21.333h42.667c11.776 0 21.333 9.557 21.333 21.333s-9.557 21.333-21.333 21.333zM192-21.077h-42.667c-11.776 0-21.333-9.557-21.333-21.333s9.557-21.333 21.333-21.333h42.667c11.776 0 21.333 9.557 21.333 21.333s-9.557 21.333-21.333 21.333zM320-21.077h-42.667c-11.776 0-21.333-9.557-21.333-21.333s9.557-21.333 21.333-21.333h42.667c11.776 0 21.333 9.557 21.333 21.333s-9.557 21.333-21.333 21.333zM64-21.077h-21.333v21.333c0 11.776-9.557 21.333-21.333 21.333s-21.333-9.557-21.333-21.333v-42.667c0-11.776 9.557-21.333 21.333-21.333h42.667c11.776 0 21.333 9.557 21.333 21.333s-9.557 21.333-21.333 21.333zM21.333 64.256c11.776 0 21.333 9.557 21.333 21.333v42.667c0 11.776-9.557 21.333-21.333 21.333s-21.333-9.557-21.333-21.333v-42.667c0-11.776 9.557-21.333 21.333-21.333zM469.333 384.256c0 11.776-9.557 21.333-21.333 21.333h-42.667c-11.776 0-21.333-9.557-21.333-21.333s9.557-21.333 21.333-21.333h21.333v-21.333c0-11.776 9.557-21.333 21.333-21.333s21.333 9.557 21.333 21.333v42.667zM448 277.589c-11.776 0-21.333-9.557-21.333-21.333v-42.667c0-11.776 9.557-21.333 21.333-21.333s21.333 9.557 21.333 21.333v42.667c0 11.776-9.557 21.333-21.333 21.333zM448 21.589c-11.776 0-21.333-9.557-21.333-21.333v-21.333h-21.333c-11.776 0-21.333-9.557-21.333-21.333s9.557-21.333 21.333-21.333h42.667c11.776 0 21.333 9.557 21.333 21.333v42.667c0 11.776-9.557 21.333-21.333 21.333z"/>
<glyph unicode="" glyph-name="rotate-left" d="M149.419 280.064c-3.968 11.093-16.213 16.853-27.307 12.8-11.093-4.011-16.811-16.213-12.8-27.307 10.197-28.203 23.552-55.339 39.765-80.597 4.053-6.4 10.965-9.813 17.963-9.813 3.925 0 7.936 1.067 11.477 3.371 9.941 6.357 12.8 19.499 6.443 29.44-14.464 22.613-26.411 46.891-35.541 72.107zM119.339 503.851c2.219-0.725 4.48-1.109 6.699-1.109 8.917 0 17.28 5.675 20.267 14.635 5.504 16.64 12.331 33.024 20.224 48.725 5.333 10.539 1.109 23.381-9.429 28.672-10.539 5.376-23.381 1.067-28.672-9.472-8.832-17.579-16.427-35.883-22.613-54.528-3.712-11.136 2.347-23.211 13.525-26.923zM112.213 334.421c11.691 1.408 20.011 12.075 18.56 23.808-1.835 14.805-2.773 29.952-2.773 45.013 0 11.947 0.555 23.808 1.707 35.413 1.152 11.733-7.424 22.187-19.157 23.296-11.947 1.109-22.144-7.381-23.296-19.115-1.28-13.056-1.92-26.283-1.92-39.595 0-16.811 1.024-33.707 3.115-50.304 1.323-10.795 10.539-18.688 21.163-18.688 0.853 0 1.707 0.043 2.603 0.171zM449.579 42.923c-26.752 2.987-53.12 8.96-78.464 17.835-11.008 3.84-23.253-2.005-27.179-13.141-3.883-11.093 2.005-23.296 13.141-27.179 28.288-9.856 57.771-16.555 87.68-19.968 0.811-0.128 1.621-0.128 2.432-0.128 10.709 0 19.925 8.021 21.205 18.944 1.28 11.733-7.125 22.272-18.816 23.637zM298.667 95.531c-22.741 14.208-43.989 31.061-63.104 49.92-8.363 8.277-21.888 8.192-30.165-0.213-8.277-8.32-8.192-21.845 0.171-30.123 21.333-21.12 45.056-39.936 70.443-55.765 3.541-2.219 7.424-3.243 11.307-3.243 7.125 0 14.080 3.541 18.091 10.027 6.272 9.984 3.243 23.125-6.741 29.397zM490.667 808.576c-6.699 0-13.227-0.768-19.84-1.109l97.493 69.035c9.6 6.827 11.904 20.139 5.077 29.739s-20.096 11.861-29.739 5.077l-150.656-106.667c-5.632-4.011-9.003-10.539-9.003-17.408 0-6.912 3.328-13.397 8.96-17.408l150.656-107.008c3.755-2.645 8.064-3.925 12.331-3.925 6.699 0 13.269 3.115 17.408 8.96 6.827 9.6 4.565 22.955-5.035 29.739l-94.805 67.328c5.717 0.256 11.349 0.939 17.109 0.939 199.979 0 362.667-162.688 362.667-362.667 0-185.301-138.667-340.224-322.56-360.448-11.691-1.28-20.181-11.861-18.859-23.552 1.195-10.923 10.453-18.987 21.205-18.987 0.768 0 1.579 0.043 2.347 0.085 205.525 22.613 360.533 195.797 360.533 402.859 0.043 223.573-181.803 405.419-405.291 405.419z"/>
</font>
</defs>
</svg>
